<?xml version="1.0" encoding="UTF-8" standalone="no"?>
<!-- Created with Inkscape (http://www.inkscape.org/) -->

<svg
   xmlns:dc="http://purl.org/dc/elements/1.1/"
   xmlns:cc="http://creativecommons.org/ns#"
   xmlns:rdf="http://www.w3.org/1999/02/22-rdf-syntax-ns#"
   xmlns:svg="http://www.w3.org/2000/svg"
   xmlns="http://www.w3.org/2000/svg"
   xmlns:sodipodi="http://sodipodi.sourceforge.net/DTD/sodipodi-0.dtd"
   xmlns:inkscape="http://www.inkscape.org/namespaces/inkscape"
   width="1052.3622"
   height="744.09448"
   id="svg2"
   version="1.1"
   inkscape:version="0.48.2 r9819"
   sodipodi:docname="Logo_01.svg"
   inkscape:export-filename="C:\Users\Alistair\Desktop\ScopeNet\Logo_01.png"
   inkscape:export-xdpi="600"
   inkscape:export-ydpi="600">
  <defs
     id="defs4" />
  <sodipodi:namedview
     id="base"
     pagecolor="#ffffff"
     bordercolor="#666666"
     borderopacity="1"
     inkscape:pageopacity="0.0"
     inkscape:pageshadow="2"
     inkscape:zoom="0.62234727"
     inkscape:cx="167.02919"
     inkscape:cy="370"
     inkscape:document-units="px"
     inkscape:current-layer="layer1"
     showgrid="false"
     inkscape:window-width="1366"
     inkscape:window-height="721"
     inkscape:window-x="-4"
     inkscape:window-y="-4"
     inkscape:window-maximized="1" />
  <metadata
     id="metadata7">
    <rdf:RDF>
      <cc:Work
         rdf:about="">
        <dc:format>image/svg+xml</dc:format>
        <dc:type
           rdf:resource="http://purl.org/dc/dcmitype/StillImage" />
        <dc:title></dc:title>
      </cc:Work>
    </rdf:RDF>
  </metadata>
  <g
     inkscape:label="Layer 1"
     inkscape:groupmode="layer"
     id="layer1"
     transform="translate(0,-308.2677)">
    <rect
       style="fill:#182430;fill-opacity:1;fill-rule:nonzero;stroke:#ffffff;stroke-width:8;stroke-linecap:round;stroke-linejoin:round;stroke-miterlimit:4;stroke-opacity:1;stroke-dasharray:none"
       id="rect3783"
       width="813.1532"
       height="173.63887"
       x="119.60448"
       y="593.49548" />
    <g
       style="font-size:64px;font-style:normal;font-variant:normal;font-weight:normal;font-stretch:normal;line-height:125%;letter-spacing:0px;word-spacing:0px;fill:#ffffff;fill-opacity:1;stroke:#ffffff;font-family:Ecliptic BRK;-inkscape-font-specification:Ecliptic BRK;stroke-opacity:1;stroke-width:4;stroke-miterlimit:4;stroke-dasharray:none;stroke-linejoin:round;stroke-linecap:round"
       id="flowRoot2985" />
    <g
       style="font-size:64px;font-style:normal;font-variant:normal;font-weight:normal;font-stretch:normal;line-height:125%;letter-spacing:0px;word-spacing:0px;fill:#ffffff;fill-opacity:1;stroke:#ffffff;stroke-width:4;stroke-linecap:round;stroke-linejoin:round;stroke-miterlimit:4;stroke-opacity:1;stroke-dasharray:none;font-family:Codystar;-inkscape-font-specification:Codystar"
       id="text2993"
       transform="translate(-3.6914062e-6,1.2109372e-6)">
      <path
         d="m 200.63422,637.77588 c -7e-5,0.46884 -0.0938,0.89072 -0.28125,1.26562 -0.18757,0.3751 -0.32819,0.79697 -0.42188,1.26563 -0.93756,0.37509 -1.73444,0.56259 -2.39062,0.5625 -2.06256,9e-5 -3.09381,-1.03116 -3.09375,-3.09375 -6e-5,-0.56241 0.164,-1.03116 0.49218,-1.40625 0.32807,-0.37491 0.58588,-0.79678 0.77344,-1.26563 l 2.10938,-0.14062 2.53125,1.54687 c 0.18743,0.5626 0.28118,0.98447 0.28125,1.26563 z m 8.4375,8.71875 c -8e-5,0.46883 -0.0938,0.72665 -0.28125,0.77344 -0.18758,0.047 -0.18758,0.30477 0,0.77343 -0.46883,0.46884 -0.79695,0.72665 -0.98438,0.77344 -0.18757,0.047 -0.56257,0.11727 -1.125,0.21094 -0.28132,0.18758 -0.75007,0.28133 -1.40625,0.28125 -0.18757,0.0938 -0.30476,0.16414 -0.35156,0.21094 -0.047,0.047 -0.16413,0.11727 -0.35156,0.21093 -0.28132,-0.37491 -0.56257,-0.70304 -0.84375,-0.98437 -0.28132,-0.28117 -0.65632,-0.42179 -1.125,-0.42188 l 0,-3.51562 c 0.74993,9e-5 1.26555,-0.18741 1.54687,-0.5625 0.28118,-0.37491 0.84368,-0.56241 1.6875,-0.5625 0.74993,9e-5 1.38274,0.23446 1.89844,0.70312 0.51555,0.46884 0.96086,1.03134 1.33594,1.6875 z m -18.42188,-16.03125 c -5e-5,0.5626 -0.14068,1.10166 -0.42187,1.61719 -0.28131,0.51572 -0.60943,0.96103 -0.98438,1.33593 -0.75005,0.1876 -1.2188,0.28135 -1.40625,0.28125 -0.56255,10e-5 -1.10161,-0.11709 -1.61719,-0.35156 -0.51567,-0.23427 -1.00786,-0.44521 -1.47656,-0.63281 -5e-5,-0.3749 -0.0469,-0.70303 -0.14062,-0.98438 -0.0938,-0.28115 -0.14068,-0.60927 -0.14063,-0.98437 -5e-5,-0.65615 0.39839,-1.28896 1.19531,-1.89844 0.79683,-0.60927 1.47651,-0.91396 2.03907,-0.91406 0.56244,10e-5 1.07807,0.1876 1.54687,0.5625 0.4687,0.3751 0.93745,0.65635 1.40625,0.84375 z m -12.65625,-1.40625 c -0.46879,0.3751 -0.96098,0.72666 -1.47656,1.05469 -0.51567,0.32822 -1.00785,0.72666 -1.47656,1.19531 l -3.375,-0.5625 -0.84375,-3.51563 c 0.56246,-0.46864 1.12496,-0.86708 1.6875,-1.19531 0.56246,-0.32802 1.21871,-0.49208 1.96875,-0.49219 0.28121,1.1e-4 0.70308,0.0939 1.26562,0.28125 0.46871,0.46886 0.82027,1.00792 1.05469,1.61719 0.23433,0.60948 0.63277,1.14854 1.19531,1.61719 z m -14.48437,2.25 c -3e-5,0.28135 -0.0938,0.60947 -0.28125,0.98437 -0.65628,0.46885 -1.10159,0.7501 -1.33594,0.84375 -0.2344,0.0938 -0.72659,0.1876 -1.47656,0.28125 -0.18753,10e-5 -0.39847,0.0704 -0.63282,0.21094 -0.2344,0.14072 -0.49221,0.21104 -0.77343,0.21094 l -0.84375,0 c -3e-5,-0.7499 -0.0703,-1.24209 -0.21094,-1.47656 -0.14065,-0.23428 -0.39846,-0.63272 -0.77344,-1.19532 0.46873,-0.74989 0.98435,-1.42958 1.54688,-2.03906 0.56247,-0.60927 1.31247,-0.91396 2.25,-0.91406 0.46872,10e-5 0.79684,0.047 0.98437,0.14062 0.37497,0.37511 0.72654,0.79698 1.05469,1.26563 0.3281,0.46885 0.49216,1.03135 0.49219,1.6875 z m 38.10937,55.82812 c -7e-5,0.75005 -0.30475,1.31255 -0.91406,1.6875 -0.60944,0.37505 -1.1485,0.79692 -1.61719,1.26563 -0.75006,-0.28121 -1.47662,-0.51558 -2.17969,-0.70313 -0.70318,-0.18745 -1.28912,-0.6562 -1.75781,-1.40625 l 0,-1.26562 c -6e-5,-0.46871 0.0937,-0.98433 0.28125,-1.54688 l 1.82813,-1.40625 1.82812,-0.28125 1.6875,1.26563 c 0.18744,0.75005 0.46869,1.21879 0.84375,1.40625 z m -49.64062,-46.26562 c -0.93752,0.37509 -1.64064,0.58603 -2.10938,0.63281 -0.46876,0.047 -1.17189,0.16415 -2.10937,0.35156 -0.56252,-0.37491 -1.07814,-0.77334 -1.54688,-1.19531 -0.46876,-0.42178 -0.70313,-0.96084 -0.70312,-1.61719 -1e-5,-0.7499 0.28124,-1.40615 0.84375,-1.96875 0.56248,-0.5624 1.17186,-0.98428 1.82812,-1.26562 l 1.125,1.125 c 0.18749,-0.0937 0.46874,-0.14053 0.84375,-0.14063 0.84374,10e-5 1.28905,0.32822 1.33594,0.98438 0.0469,0.65634 0.0703,1.21884 0.0703,1.6875 -2e-5,0.56259 0.14061,1.03134 0.42188,1.40625 z m 58.07812,60.04687 c -7e-5,0.46878 -0.047,0.79691 -0.14062,0.98438 -0.18758,0.18753 -0.39852,0.4219 -0.63282,0.70312 -0.23444,0.28128 -0.49226,0.51566 -0.77343,0.70313 -0.18758,3e-5 -0.39851,0.0235 -0.63282,0.0703 -0.23444,0.0469 -0.44538,0.0703 -0.63281,0.0703 -0.37507,3e-5 -0.75007,-0.0937 -1.125,-0.28125 -0.18757,-0.0937 -0.56257,-0.25778 -1.125,-0.49218 -0.56257,-0.23435 -0.84382,-0.53904 -0.84375,-0.91407 -0.28132,-0.56247 -0.42194,-0.93746 -0.42187,-1.125 -7e-5,-0.56246 0.16399,-1.00778 0.49218,-1.33593 0.32806,-0.3281 0.49212,-0.72653 0.49219,-1.19532 0.46868,-0.18746 0.91399,-0.30465 1.33594,-0.35156 0.4218,-0.0468 0.86711,-0.2109 1.33594,-0.49219 0.65617,0.46879 1.26555,0.98441 1.82812,1.54688 0.56243,0.56253 0.84368,1.26566 0.84375,2.10937 z m -23.76562,-21.23437 c -5e-5,0.37505 -0.0469,0.75005 -0.14063,1.125 -0.0938,0.37505 -0.14067,0.75005 -0.14062,1.125 -0.4688,0.18755 -0.93755,0.44536 -1.40625,0.77344 -0.4688,0.32817 -0.93755,0.49223 -1.40625,0.49218 -0.4688,5e-5 -0.93755,-0.11713 -1.40625,-0.35156 -0.4688,-0.23432 -0.93755,-0.44526 -1.40625,-0.63281 l 0.42187,-0.70313 c -0.18754,-0.18745 -0.35161,-0.39838 -0.49219,-0.63281 -0.14067,-0.23432 -0.21098,-0.49213 -0.21093,-0.77344 -5e-5,-0.37494 0.0468,-0.72651 0.14062,-1.05468 0.0937,-0.32808 0.18746,-0.67964 0.28125,-1.05469 0.93746,-0.6562 1.87495,-0.98432 2.8125,-0.98438 0.56245,6e-5 1.12495,0.18756 1.6875,0.5625 0.18745,0.46881 0.44526,0.7735 0.77344,0.91407 0.32807,0.14067 0.49214,0.53911 0.49219,1.19531 z m -15.32813,-3.65625 c -0.18753,1.0313 -0.56253,1.92193 -1.125,2.67187 -0.75003,0.28131 -1.45316,0.42193 -2.10937,0.42188 -0.56254,5e-5 -1.31253,-0.18745 -2.25,-0.5625 -0.37503,-0.6562 -0.56253,-1.35932 -0.5625,-2.10938 -3e-5,-1.12494 0.23434,-1.96869 0.70312,-2.53125 0.28122,-0.0937 0.56247,-0.18744 0.84375,-0.28125 0.28122,-0.0937 0.56247,-0.14056 0.84375,-0.14062 l 0.70313,0 c 0.84371,0.56256 1.40621,0.86724 1.6875,0.91406 0.28121,0.0469 0.70309,0.586 1.26562,1.61719 z M 148.60297,653.6665 c -0.0938,0.37508 -0.14064,0.89071 -0.14063,1.54688 -1e-5,0.75007 -0.3047,1.33601 -0.91406,1.75781 -0.60939,0.42195 -1.2422,0.63289 -1.89844,0.63281 -0.84376,8e-5 -1.57032,-0.30461 -2.17969,-0.91406 -0.60938,-0.6093 -0.91407,-1.33586 -0.91406,-2.17969 -1e-5,-0.84367 0.21093,-1.35929 0.63281,-1.54687 0.42187,-0.18742 0.86718,-0.56242 1.33594,-1.125 0.84374,0.0938 1.54687,0.30477 2.10938,0.63281 0.56248,0.32821 1.21873,0.72664 1.96875,1.19531 z m 58.64062,63.42188 c -0.0938,0.46876 -0.21101,0.96095 -0.35156,1.47656 -0.1407,0.51564 -0.21101,1.00783 -0.21094,1.47656 -0.46882,2e-5 -0.89069,0.0703 -1.26562,0.21094 -0.37507,0.14064 -0.79695,0.21095 -1.26563,0.21094 -0.18757,10e-6 -0.56257,-0.18749 -1.125,-0.5625 -0.28132,10e-6 -0.60944,0.0938 -0.98437,0.28125 -0.37507,-1.31249 -0.93757,-2.20311 -1.6875,-2.67188 l 1.54687,-2.95312 c 0.37493,0.18752 0.65618,0.28127 0.84375,0.28125 0.18743,2e-5 0.37493,-0.0937 0.5625,-0.28125 0.18743,-0.18748 0.37493,-0.37498 0.5625,-0.5625 0.37493,0.37502 0.70306,0.65627 0.98438,0.84375 0.18743,-0.0937 0.46868,-0.14061 0.84375,-0.14063 0.37493,0.46877 0.67961,0.86721 0.91406,1.19532 0.2343,0.32814 0.44524,0.72657 0.63281,1.19531 z m -51.75,-47.39063 c -2e-5,0.84382 -0.25783,1.50006 -0.77344,1.96875 -0.51564,0.46881 -1.14845,0.84381 -1.89843,1.125 -1.21877,-0.46869 -2.06252,-0.93744 -2.53125,-1.40625 -0.37502,-0.74993 -0.56252,-1.35931 -0.5625,-1.82812 -2e-5,-0.46869 0.11717,-0.93744 0.35156,-1.40625 0.23436,-0.46869 0.35155,-0.93744 0.35156,-1.40625 0.18749,6e-5 0.39842,0.0235 0.63281,0.0703 0.23436,0.0469 0.4453,0.0704 0.63282,0.0703 0.28123,7e-5 0.56248,-0.0234 0.84375,-0.0703 0.28123,-0.0468 0.5156,-0.0702 0.70312,-0.0703 0.46873,0.28131 0.79686,0.51569 0.98438,0.70312 0.18748,0.18757 0.60935,0.37507 1.26562,0.5625 z m 39.9375,58.35938 c -6e-5,1.03125 -0.30475,1.78125 -0.91406,2.25 -0.60943,0.46875 -1.28912,0.84375 -2.03906,1.125 -0.46881,-0.0937 -0.86725,-0.23438 -1.19532,-0.42188 -0.32818,-0.18749 -0.72661,-0.32812 -1.19531,-0.42187 -0.2813,-0.46875 -0.53912,-0.86719 -0.77344,-1.19531 -0.23443,-0.32813 -0.44536,-0.72656 -0.63281,-1.19532 0.18745,-0.46874 0.39838,-0.89062 0.63281,-1.26562 0.23432,-0.375 0.44526,-0.79687 0.63282,-1.26563 0.46869,-0.18749 0.89057,-0.35155 1.26562,-0.49218 0.37494,-0.14062 0.79682,-0.21093 1.26563,-0.21094 0.28119,10e-6 0.70306,0.0938 1.26562,0.28125 0.37494,0.46876 0.74994,0.89063 1.125,1.26562 0.37494,0.37501 0.56244,0.89063 0.5625,1.54688 z m -17.01562,3.9375 c -5e-5,0.75 -0.2813,1.42968 -0.84375,2.03906 -0.56255,0.60937 -1.21879,0.91406 -1.96875,0.91406 -0.46879,0 -0.93754,-0.0703 -1.40625,-0.21093 -0.46879,-0.14063 -0.93754,-0.21094 -1.40625,-0.21094 -0.18754,-0.46875 -0.3516,-0.9375 -0.49219,-1.40625 -0.14066,-0.46875 -0.21098,-0.9375 -0.21094,-1.40625 l 0,-1.26563 c 0.65621,-0.37499 1.28903,-0.60937 1.89844,-0.70312 0.60933,-0.0937 1.19527,-0.32812 1.75781,-0.70313 l 2.39063,1.82813 c 0.18745,0.5625 0.2812,0.9375 0.28125,1.125 z m -15.89063,-2.67188 c -0.75003,2.0625 -2.01565,3.09375 -3.79687,3.09375 l -0.70313,0 c -0.56252,-0.375 -0.93752,-0.77343 -1.125,-1.19531 -0.18752,-0.42187 -0.51564,-0.86718 -0.98437,-1.33594 0.28123,-0.84374 0.42185,-1.59374 0.42187,-2.25 0.65623,-0.65624 1.31248,-0.98437 1.96875,-0.98437 0.46873,0 0.91404,0.0469 1.33594,0.14062 0.42185,0.0938 0.86716,0.14063 1.33594,0.14063 z m -14.20312,-5.48437 c -0.46877,0.37501 -0.96095,0.75001 -1.47657,1.125 -0.51563,0.37501 -1.10157,0.56251 -1.75781,0.5625 -0.28126,10e-6 -0.56251,-0.0469 -0.84375,-0.14063 -0.28126,-0.0937 -0.51563,-0.14061 -0.70312,-0.14062 -0.84376,-0.74999 -1.26564,-1.28906 -1.26563,-1.61719 -1e-5,-0.32811 -0.23438,-0.72655 -0.70312,-1.19531 0.56249,-0.65624 1.05468,-1.31249 1.47656,-1.96875 0.42187,-0.65624 1.14843,-0.98436 2.17969,-0.98438 0.56249,2e-5 1.07811,0.16408 1.54687,0.49219 0.46874,0.32814 0.93749,0.58595 1.40625,0.77344 0.0937,0.46876 0.14061,0.96095 0.14063,1.47656 -2e-5,0.51564 -2e-5,1.0547 0,1.61719 z"
         style="font-size:144px;fill:#ffffff;stroke:#ffffff;stroke-width:4;stroke-linecap:round;stroke-linejoin:round;stroke-miterlimit:4;stroke-opacity:1;stroke-dasharray:none"
         id="path2999"
         inkscape:connector-curvature="0" />
      <path
         d="m 307.93109,642.4165 c -9e-5,1.40634 -0.39853,2.3204 -1.19531,2.74219 -0.79697,0.42196 -1.80478,0.6329 -3.02344,0.63281 -0.18759,-0.65616 -0.46884,-1.07803 -0.84375,-1.26562 -0.37508,-0.18741 -0.56258,-0.65616 -0.5625,-1.40625 -8e-5,-0.84366 0.3046,-1.57022 0.91406,-2.17969 0.60929,-0.60928 1.33585,-0.91397 2.17969,-0.91406 0.65616,9e-5 1.2421,0.23447 1.75781,0.70312 0.51554,0.46884 0.77335,1.03134 0.77344,1.6875 z m -8.01562,-6.46875 -0.14063,1.96875 c -0.56258,0.3751 -1.00789,0.65635 -1.33594,0.84375 -0.3282,0.1876 -0.67976,0.51572 -1.05468,0.98438 -0.93758,-0.28116 -1.68758,-0.65616 -2.25,-1.125 -0.18758,-0.37491 -0.39852,-0.72647 -0.63282,-1.05469 -0.23445,-0.32803 -0.35164,-0.72647 -0.35156,-1.19531 -8e-5,-0.18741 0.0937,-0.46865 0.28125,-0.84375 0.46867,-0.46865 0.9843,-0.84365 1.54688,-1.125 0.56242,-0.28115 1.21867,-0.42178 1.96875,-0.42188 l 1.125,0 c -9e-5,0.7501 0.0937,1.1251 0.28125,1.125 0.18741,10e-5 0.37491,0.28135 0.5625,0.84375 z m -9,-6.46875 c -0.28133,0.75011 -0.46883,1.40636 -0.5625,1.96875 -0.0938,0.5626 -0.5157,1.07823 -1.26563,1.54688 l -2.53125,0 c -0.28132,-0.3749 -0.49226,-0.7499 -0.63281,-1.125 -0.1407,-0.3749 -0.35163,-0.70303 -0.63281,-0.98438 0.18743,-0.93739 0.37493,-1.59364 0.5625,-1.96875 l 0.42187,-1.26562 c 0.46868,-0.0937 0.79681,-0.14052 0.98438,-0.14063 0.18743,1.1e-4 0.51555,1.1e-4 0.98437,0 0.65618,1.1e-4 1.14837,0.21105 1.47656,0.63282 0.32806,0.42197 0.72649,0.86729 1.19532,1.33593 z m -11.8125,-2.10937 c -7e-5,0.84385 -0.25788,1.54698 -0.77344,2.10937 -0.51569,0.56261 -1.19537,0.84386 -2.03906,0.84375 -0.75006,1.1e-4 -1.38287,-0.21083 -1.89844,-0.63281 -0.51568,-0.42177 -0.7735,-1.00771 -0.77344,-1.75781 -6e-5,-0.84365 0.42182,-1.52333 1.26563,-2.03906 0.84369,-0.51552 1.64056,-0.77333 2.39062,-0.77344 l 0.98438,0 c 0.18743,0.37511 0.37493,0.72667 0.5625,1.05469 0.18743,0.32823 0.28118,0.72666 0.28125,1.19531 z m -12.51563,0.42187 c -0.2813,0.37511 -0.39849,0.58605 -0.35156,0.63282 0.0468,0.047 0.0703,0.30479 0.0703,0.77343 -5e-5,0.56261 -0.16411,1.00792 -0.49219,1.33594 -0.32817,0.32823 -0.58598,0.72666 -0.77343,1.19531 -0.4688,-0.1874 -0.98443,-0.23427 -1.54688,-0.14062 -0.56254,0.0938 -1.07817,10e-5 -1.54687,-0.28125 -0.2813,-0.5624 -0.56255,-0.9374 -0.84375,-1.125 -0.2813,-0.1874 -0.42192,-0.65615 -0.42188,-1.40625 -4e-5,-1.21865 0.56246,-2.01552 1.6875,-2.39063 1.12495,-0.37489 2.1562,-0.60926 3.09375,-0.70312 -5e-5,0.7501 0.0703,1.17198 0.21094,1.26562 0.14057,0.0939 0.44526,0.37511 0.91406,0.84375 z m -13.5,6.32813 c -0.18753,0.46885 -0.56253,1.03135 -1.125,1.6875 -0.56253,0.65634 -1.12503,0.98447 -1.6875,0.98437 -0.18753,10e-5 -0.58597,-0.0937 -1.19531,-0.28125 -0.60941,-0.1874 -1.00784,-0.32803 -1.19531,-0.42187 -0.18753,-0.3749 -0.39847,-0.72647 -0.63282,-1.05469 -0.2344,-0.32803 -0.35159,-0.72646 -0.35156,-1.19531 0.0937,-0.1874 0.23435,-0.53896 0.42188,-1.05469 0.18747,-0.51552 0.37497,-0.86709 0.5625,-1.05469 0.37496,-0.28115 0.65621,-0.42177 0.84375,-0.42187 0.18746,10e-5 0.28121,-0.28115 0.28125,-0.84375 0.56246,0.0938 1.12496,0.28135 1.6875,0.5625 0.56246,0.28135 1.12496,0.42197 1.6875,0.42187 0.0937,0.46885 0.16402,0.96104 0.21093,1.47657 0.0468,0.51572 0.21091,0.91416 0.49219,1.19531 z m -10.26562,9 c -0.37503,0.75009 -0.77347,1.40634 -1.19532,1.96875 -0.4219,0.56259 -1.00783,0.98446 -1.75781,1.26562 -0.46877,-0.18741 -0.91408,-0.32804 -1.33594,-0.42187 -0.42189,-0.0937 -0.82033,-0.32804 -1.19531,-0.70313 -0.37502,-0.93741 -0.56252,-1.64053 -0.5625,-2.10937 -2e-5,-0.74991 0.25779,-1.26554 0.77344,-1.54688 0.5156,-0.28116 0.96091,-0.70303 1.33594,-1.26562 1.59372,0.56259 2.90622,1.50009 3.9375,2.8125 z m 65.8125,74.53125 c -1e-4,0.56251 -0.14072,1.12501 -0.42188,1.6875 -0.46884,0.28126 -0.89071,0.58595 -1.26562,0.91406 -0.37509,0.32814 -0.84384,0.4922 -1.40625,0.49219 -0.75009,10e-6 -1.40634,-0.32811 -1.96875,-0.98438 -0.56259,-0.65623 -0.84384,-1.35936 -0.84375,-2.10937 -9e-5,-0.93749 0.21085,-1.54686 0.63281,-1.82813 0.42179,-0.28123 0.96085,-0.65623 1.61719,-1.125 0.65616,0.0938 1.19522,0.11721 1.61718,0.0703 0.42179,-0.0469 1.00773,0.0703 1.75782,0.35156 -1e-4,0.46877 0.0468,0.89064 0.14062,1.26562 0.0937,0.37502 0.14053,0.79689 0.14063,1.26563 z m -72.14063,-63 c -2e-5,0.84383 -0.30471,1.52351 -0.91406,2.03906 -0.60939,0.5157 -1.33596,0.77351 -2.17969,0.77344 -1.68751,7e-5 -2.53126,-0.84368 -2.53125,-2.53125 -1e-5,-0.46867 0.0703,-0.9843 0.21094,-1.54688 0.14061,-0.56242 0.30467,-1.07804 0.49219,-1.54687 l 1.40625,0 c 0.93748,8e-5 1.75779,0.21102 2.46093,0.63281 0.70311,0.42196 1.05467,1.14852 1.05469,2.17969 z m 63,71.57812 c -8e-5,0.46876 -0.11727,0.89063 -0.35156,1.26563 -0.23446,0.375 -0.4454,0.79688 -0.63281,1.26562 -0.46883,10e-6 -0.86727,0.0469 -1.19532,0.14063 -0.3282,0.0937 -0.72664,0.14063 -1.19531,0.14062 -0.75008,10e-6 -1.33601,-0.23437 -1.75781,-0.70312 -0.42195,-0.46875 -0.63289,-1.07812 -0.63281,-1.82813 -8e-5,-0.74999 0.21086,-1.40624 0.63281,-1.96875 0.4218,-0.56249 1.00773,-0.84374 1.75781,-0.84375 0.74992,10e-6 1.49992,0.23439 2.25,0.70313 0.74992,0.46876 1.12492,1.07813 1.125,1.82812 z m -68.76562,-59.90625 c -2e-5,0.93757 -0.37502,1.87507 -1.125,2.8125 -0.46877,0.18757 -0.98439,0.32819 -1.54688,0.42188 -0.56251,0.0938 -1.12501,0.28131 -1.6875,0.5625 -0.28126,-0.74994 -0.60938,-1.38275 -0.98437,-1.89844 -0.37501,-0.51556 -0.56251,-1.14837 -0.5625,-1.89844 0.28124,-0.28118 0.77343,-0.74993 1.47656,-1.40625 0.70311,-0.65618 1.28905,-0.9843 1.75781,-0.98437 0.18749,7e-5 0.39843,0.0235 0.63281,0.0703 0.23437,0.0469 0.4453,0.0704 0.63282,0.0703 z m 57.51562,65.39063 0,1.26562 c -0.37507,0.28125 -0.77351,0.5625 -1.19531,0.84375 -0.42195,0.28125 -0.86726,0.42188 -1.33594,0.42188 -0.75007,0 -1.35944,-0.23438 -1.82812,-0.70313 -0.46882,-0.46875 -0.89069,-1.03125 -1.26563,-1.6875 -6e-5,-0.75 0.11712,-1.14843 0.35156,-1.19531 0.23431,-0.0469 0.25775,-0.44531 0.0703,-1.19531 0.56243,-0.1875 0.91399,-0.35156 1.05468,-0.49219 0.14056,-0.14062 0.44525,-0.44531 0.91407,-0.91406 0.46868,0.1875 0.93743,0.42188 1.40625,0.70312 0.46868,0.28126 0.9843,0.42188 1.54687,0.42188 0.0937,0.46875 0.16399,0.89063 0.21094,1.26562 0.0468,0.37501 0.0702,0.79688 0.0703,1.26563 z m -57.79687,-50.76563 c -2e-5,0.4688 -0.0938,1.17193 -0.28125,2.10938 -0.56252,0.4688 -1.03127,0.79692 -1.40625,0.98437 -0.37502,0.18755 -0.93751,0.2813 -1.6875,0.28125 -1.59376,5e-5 -2.39064,-0.79682 -2.39063,-2.39062 -1e-5,-0.8437 0.23437,-1.61714 0.70313,-2.32031 0.46874,-0.70308 1.17186,-1.05464 2.10937,-1.05469 0.74999,5e-5 1.42968,0.21099 2.03906,0.63281 0.60937,0.42193 0.91405,1.00787 0.91407,1.75781 z m 43.45312,53.15625 -0.70312,0.98438 -0.84375,0 c -0.28131,0 -0.53912,0.0234 -0.77344,0.0703 -0.23443,0.0469 -0.49224,0.0703 -0.77344,0.0703 -0.37505,-0.375 -0.70318,-0.75 -0.98437,-1.125 -0.28131,-0.375 -0.60943,-0.79687 -0.98438,-1.26562 0.18745,-0.65625 0.44526,-1.26563 0.77344,-1.82813 0.32807,-0.56249 0.72651,-1.07812 1.19531,-1.54687 0.4687,0 0.86713,0.0234 1.19531,0.0703 0.32807,0.0469 0.72651,0.0703 1.19532,0.0703 0.46869,0.75001 0.98431,1.35938 1.54687,1.82813 -0.18756,0.5625 -0.28131,0.9375 -0.28125,1.125 -6e-5,0.75 -0.0938,1.21875 -0.28125,1.40625 -0.0938,0.0937 -0.18756,0.14062 -0.28125,0.14062 z m -40.92187,-39.79687 c -2e-5,0.75004 -0.11721,1.31254 -0.35157,1.6875 -0.23439,0.37503 -0.4922,0.89066 -0.77343,1.54687 -0.37502,0.18754 -0.70314,0.32816 -0.98438,0.42188 -0.28126,0.0938 -0.60939,0.14066 -0.98437,0.14062 -0.65627,4e-5 -1.2422,-0.23434 -1.75782,-0.70312 -0.51563,-0.46872 -0.96094,-0.93747 -1.33593,-1.40625 0.18749,-0.46871 0.28124,-0.98434 0.28125,-1.54688 -1e-5,-0.37496 0.0937,-0.74996 0.28125,-1.125 0.46874,-0.18746 0.98436,-0.39839 1.54687,-0.63281 0.56249,-0.23433 1.03124,-0.35152 1.40625,-0.35156 0.18749,4e-5 0.6328,0.28129 1.33594,0.84375 0.70311,0.56254 1.14842,0.93754 1.33594,1.125 z m 28.125,36 c -0.18755,0.46875 -0.35161,0.82031 -0.49219,1.05469 -0.14067,0.23437 -0.16411,0.58593 -0.0703,1.05468 -0.4688,0.28125 -0.98442,0.5625 -1.54688,0.84375 -0.56254,0.28125 -1.12504,0.42188 -1.6875,0.42188 -0.65629,0 -1.26566,-0.23438 -1.82812,-0.70313 -0.56254,-0.46875 -0.84379,-1.03125 -0.84375,-1.6875 -4e-5,-0.56249 0.28121,-1.21874 0.84375,-1.96875 0.56246,-0.74999 1.12496,-1.21874 1.6875,-1.40625 0.18746,0.18751 0.37496,0.25782 0.5625,0.21094 0.18746,-0.0469 0.42183,-0.0703 0.70312,-0.0703 l 0.84375,0 c 0.28121,0.5625 0.53902,0.96094 0.77344,1.19531 0.23433,0.23438 0.58589,0.58594 1.05469,1.05469 z M 237.61859,709.9165 c -0.18752,0.93753 -0.51564,1.7344 -0.98437,2.39063 -0.46877,0.65627 -1.21877,0.98439 -2.25,0.98437 l -1.125,0 c -0.18752,-0.37498 -0.42189,-0.72654 -0.70313,-1.05468 -0.28126,-0.32811 -0.46876,-0.67967 -0.5625,-1.05469 -0.18751,-0.56248 -0.28126,-0.8906 -0.28125,-0.98438 -1e-5,-0.28122 0.0469,-0.53904 0.14063,-0.77343 0.0937,-0.23436 0.18748,-0.44529 0.28125,-0.63282 0.93748,-0.65622 1.87498,-0.98435 2.8125,-0.98437 0.28123,2e-5 0.7031,0.0938 1.26562,0.28125 0.18748,0.37502 0.37498,0.70315 0.5625,0.98437 0.18748,0.28128 0.46873,0.56253 0.84375,0.84375 z m 11.67188,13.64063 c -0.28129,0.65626 -0.58597,1.19532 -0.91407,1.61719 -0.32815,0.42188 -0.86721,0.77344 -1.61718,1.05468 -0.56253,-0.18749 -1.24222,-0.4453 -2.03907,-0.77343 -0.7969,-0.32812 -1.19534,-0.86718 -1.19531,-1.61719 -3e-5,-0.56249 0.18747,-1.12499 0.5625,-1.6875 0.46872,-0.28124 0.91404,-0.53905 1.33594,-0.77344 0.42184,-0.23436 0.86716,-0.35155 1.33594,-0.35156 0.74997,10e-6 1.28903,0.28126 1.61718,0.84375 0.3281,0.56251 0.63278,1.12501 0.91407,1.6875 z"
         style="font-size:144px;fill:#ffffff;stroke:#ffffff;stroke-width:4;stroke-linecap:round;stroke-linejoin:round;stroke-miterlimit:4;stroke-opacity:1;stroke-dasharray:none"
         id="path3001"
         inkscape:connector-curvature="0" />
      <path
         d="m 414.94672,647.33838 c -0.46885,0.75008 -0.86729,1.33602 -1.19532,1.75781 -0.32822,0.42196 -0.8204,0.96102 -1.47656,1.61719 l -0.84375,0 c -0.37509,8e-5 -0.70322,-0.0234 -0.98437,-0.0703 -0.28135,-0.0468 -0.5626,-0.0234 -0.84375,0.0703 -0.1876,-0.56242 -0.51572,-1.00773 -0.98438,-1.33594 -0.46884,-0.32804 -0.70321,-0.82023 -0.70312,-1.47656 -9e-5,-1.03117 0.25772,-1.64054 0.77343,-1.82813 0.51554,-0.18741 1.14835,-0.37491 1.89844,-0.5625 0.56241,-0.18741 1.03116,-0.28116 1.40625,-0.28125 0.18741,9e-5 0.63272,0.30478 1.33594,0.91407 0.70303,0.60946 1.24209,1.00789 1.61719,1.19531 z m -10.96875,-9.42188 c -9e-5,0.5626 -0.21103,1.10166 -0.63282,1.61719 -0.42196,0.51572 -0.72664,1.05478 -0.91406,1.61719 -0.93758,-0.18741 -1.92196,-0.39835 -2.95312,-0.63281 -1.03134,-0.23429 -1.54696,-1.00772 -1.54688,-2.32032 -8e-5,-0.3749 0.0702,-0.72646 0.21094,-1.05468 0.14054,-0.32803 0.21085,-0.6796 0.21094,-1.05469 0.93741,-0.65615 1.87491,-0.98428 2.8125,-0.98438 0.46866,10e-5 0.91397,0.11729 1.33593,0.35157 0.42179,0.23447 0.8671,0.49228 1.33594,0.77343 -9e-5,0.28135 0.0233,0.5626 0.0703,0.84375 0.0468,0.28135 0.0702,0.5626 0.0703,0.84375 z m -12.09375,-8.85937 c -0.0938,0.46885 -0.21102,0.9376 -0.35157,1.40625 -0.1407,0.46885 -0.49226,0.79697 -1.05468,0.98437 -8e-5,1.3126 -0.65633,1.96885 -1.96875,1.96875 -0.56257,10e-5 -1.17195,-0.14052 -1.82813,-0.42187 -0.18757,-0.46865 -0.42194,-0.91396 -0.70312,-1.33594 -0.28132,-0.42177 -0.42195,-0.86708 -0.42188,-1.33594 -7e-5,-0.37489 0.0937,-0.74989 0.28125,-1.125 l 1.54688,-1.26562 0.84375,0 c 0.65617,10e-5 1.3593,0.28135 2.10937,0.84375 z m 29.67187,34.45312 c -0.5626,1.03132 -1.45323,1.54695 -2.67187,1.54688 -0.75011,7e-5 -1.33604,-0.11712 -1.75782,-0.35156 -0.42197,-0.23431 -0.91416,-0.58587 -1.47656,-1.05469 l 0,-1.82813 c -10e-5,-0.46868 0.0468,-0.84368 0.14063,-1.125 0.46865,-0.28117 0.91396,-0.58586 1.33593,-0.91406 0.42178,-0.32805 0.91396,-0.49211 1.47657,-0.49219 0.18739,8e-5 0.56239,0.0938 1.125,0.28125 0.74989,0.93758 1.12489,1.59382 1.125,1.96875 -1.1e-4,0.37507 0.23427,1.03132 0.70312,1.96875 z m -45.84375,-34.875 c -6e-5,0.84386 -0.44537,1.42979 -1.33594,1.75782 -0.89068,0.32822 -1.66411,0.53916 -2.32031,0.63281 -0.56255,-0.46865 -1.00787,-0.84365 -1.33594,-1.125 -0.32817,-0.28115 -0.86724,-0.51552 -1.61718,-0.70313 0.18744,-0.28114 0.35151,-0.58583 0.49218,-0.91406 0.14058,-0.32802 0.21089,-0.63271 0.21094,-0.91406 -5e-5,-0.46865 0.44526,-0.9374 1.33594,-1.40625 0.89057,-0.46864 1.47651,-0.93739 1.75781,-1.40625 0.46869,0.46886 0.89057,0.86729 1.26563,1.19531 0.37494,0.32823 0.79681,0.63292 1.26562,0.91406 -6e-5,0.37511 0.0468,0.70323 0.14063,0.98438 0.0937,0.28135 0.14056,0.60948 0.14062,0.98437 z m 48.51563,50.0625 c -0.75011,1.40631 -1.92198,2.10943 -3.51563,2.10938 -0.1876,5e-5 -0.42198,-0.0234 -0.70312,-0.0703 -0.28136,-0.0468 -0.51573,-0.0703 -0.70313,-0.0703 -0.28135,-0.46869 -0.5626,-0.93744 -0.84375,-1.40625 -0.28135,-0.46869 -0.42198,-0.93744 -0.42187,-1.40625 -1.1e-4,-0.56244 0.18739,-1.21869 0.5625,-1.96875 0.46864,-0.37494 0.98427,-0.56244 1.54687,-0.5625 0.5624,6e-5 1.07802,-0.14056 1.54688,-0.42187 0.46864,0.46881 1.17177,0.79693 2.10937,0.98437 z m -1.40625,17.01563 c -1.1e-4,0.28128 -0.0939,0.70316 -0.28125,1.26562 -0.75011,0.75004 -1.64073,1.12504 -2.67188,1.125 -0.3751,4e-5 -0.72666,-0.0468 -1.05469,-0.14062 -0.32822,-0.0937 -0.67979,-0.18747 -1.05468,-0.28125 -0.1876,-0.37497 -0.35167,-0.72653 -0.49219,-1.05469 -0.14073,-0.32809 -0.21104,-0.72652 -0.21094,-1.19531 -10e-5,-0.28121 0.0233,-0.53903 0.0703,-0.77344 0.0468,-0.23434 0.0702,-0.49215 0.0703,-0.77344 0.28115,-0.18746 0.58583,-0.32808 0.91406,-0.42187 0.32802,-0.0937 0.53896,-0.37496 0.63281,-0.84375 0.3749,-0.18746 0.7499,-0.28121 1.125,-0.28125 0.46865,4e-5 0.84365,0.14066 1.125,0.42187 0.28115,0.28129 0.65615,0.46879 1.125,0.5625 0.1874,0.37504 0.35146,0.75004 0.49219,1.125 0.14052,0.37504 0.21083,0.79692 0.21094,1.26563 z M 358.97797,634.5415 c -0.6563,0.3751 -1.19536,0.7501 -1.61719,1.125 -0.42192,0.3751 -1.00785,0.5626 -1.75781,0.5625 l -0.84375,0 c -0.28129,-0.28115 -0.56254,-0.5624 -0.84375,-0.84375 -0.28129,-0.28115 -0.51567,-0.60927 -0.70313,-0.98437 -0.0938,-0.3749 -0.1641,-0.67959 -0.21094,-0.91406 -0.0469,-0.23428 -0.0703,-0.44522 -0.0703,-0.63282 -3e-5,-0.3749 0.0937,-0.67958 0.28125,-0.91406 0.18746,-0.23427 0.28121,-0.53896 0.28125,-0.91406 0.74996,-0.3749 1.35934,-0.5624 1.82813,-0.5625 0.65621,10e-5 1.24214,0.14073 1.75781,0.42187 0.51558,0.28135 1.00777,0.5626 1.47656,0.84375 l 0,0.84375 c -4e-5,0.3751 0.0468,0.72667 0.14063,1.05469 0.0937,0.32822 0.18745,0.63291 0.28125,0.91406 z m 56.25,77.20313 c -0.28135,2.06252 -1.35948,3.09377 -3.23438,3.09375 -0.93759,2e-5 -1.54697,-0.2578 -1.82812,-0.77344 -0.28135,-0.51561 -0.60947,-1.10154 -0.98438,-1.75781 0.18741,-0.74998 0.53897,-1.4531 1.05469,-2.10938 0.51553,-0.65622 1.19522,-0.98435 2.03906,-0.98437 0.46866,2e-5 1.07803,0.18752 1.82813,0.5625 -1e-4,0.56252 0.11709,0.91408 0.35156,1.05469 0.23428,0.14064 0.49209,0.44533 0.77344,0.91406 z m -70.45313,-69.46875 c -3e-5,1.03134 -0.37503,1.82821 -1.125,2.39062 -0.75002,0.56259 -1.59377,0.84384 -2.53125,0.84375 -0.56252,9e-5 -1.12502,-0.32803 -1.6875,-0.98437 -0.56252,-0.65616 -0.84377,-1.21866 -0.84375,-1.6875 -2e-5,-0.65616 0.16404,-1.21866 0.49219,-1.6875 0.3281,-0.46866 0.72654,-0.89053 1.19531,-1.26563 l 1.125,-0.14062 c 0.74998,0.18759 1.49998,0.4454 2.25,0.77344 0.74997,0.32821 1.12497,0.91415 1.125,1.75781 z m 58.07813,83.25 0,1.40625 c -0.46884,0.1875 -0.96103,0.32813 -1.47657,0.42187 -0.51571,0.0938 -1.05477,0.14063 -1.61718,0.14063 -0.65634,0 -1.24227,-0.1875 -1.75782,-0.5625 -0.5157,-0.375 -1.00789,-0.75 -1.47656,-1.125 0.37492,-0.84374 0.82023,-1.64062 1.33594,-2.39063 0.51554,-0.74999 1.28898,-1.12499 2.32031,-1.125 0.74992,10e-6 1.38273,0.37501 1.89844,1.125 0.51554,0.75001 0.77335,1.45314 0.77344,2.10938 z m -68.0625,-68.20313 c -2e-5,0.28133 -0.0235,0.56258 -0.0703,0.84375 -0.0469,0.28133 -0.0703,0.56258 -0.0703,0.84375 -0.46877,0.28133 -0.98439,0.53914 -1.54687,0.77344 -0.56252,0.23445 -1.12502,0.35164 -1.6875,0.35156 -0.46877,8e-5 -0.98439,-0.0937 -1.54688,-0.28125 -0.18751,-0.46867 -0.37501,-0.7968 -0.5625,-0.98437 -0.18751,-0.18743 -0.42189,-0.51555 -0.70312,-0.98438 0.18748,-1.12492 0.51561,-2.06242 0.98437,-2.8125 0.46874,-0.18742 0.93749,-0.32804 1.40625,-0.42187 0.46874,-0.0937 0.93749,-0.14055 1.40625,-0.14063 l 1.26563,0 c 0.28123,0.46883 0.53904,0.91414 0.77343,1.33594 0.23436,0.42195 0.35155,0.91414 0.35157,1.47656 z m -4.21875,16.03125 c -2e-5,1.40631 -0.25783,2.57818 -0.77344,3.51563 -0.51564,0.93755 -1.57033,1.4063 -3.16406,1.40625 -0.37501,-0.37495 -0.82033,-0.72651 -1.33594,-1.05469 -0.51563,-0.32807 -0.77345,-0.77338 -0.77344,-1.33594 -10e-6,-0.37494 0.0469,-0.70306 0.14063,-0.98437 0.0937,-0.28119 0.14061,-0.56244 0.14062,-0.84375 0.46874,-0.28119 0.93749,-0.65619 1.40625,-1.125 0.46874,-0.46869 0.93749,-0.70307 1.40625,-0.70313 0.46874,6e-5 0.84374,0.18756 1.125,0.5625 0.28124,0.37506 0.89061,0.56256 1.82813,0.5625 z m 54.98437,59.34375 c -7e-5,0.65625 -0.0938,1.125 -0.28125,1.40625 -0.37507,0.46875 -0.82038,0.77344 -1.33594,0.91407 -0.51569,0.14062 -1.00787,0.30468 -1.47656,0.49218 -0.46881,-0.375 -0.86725,-0.63281 -1.19531,-0.77343 -0.32819,-0.14063 -0.72663,-0.30469 -1.19531,-0.49219 -7e-5,-0.28125 -0.0235,-0.53907 -0.0703,-0.77344 -0.0469,-0.23437 -0.0704,-0.49219 -0.0703,-0.77344 -6e-5,-0.28125 0.0937,-0.70312 0.28125,-1.26562 0.18744,-0.28125 0.51556,-0.63281 0.98438,-1.05469 0.46868,-0.42187 0.89056,-0.63281 1.26562,-0.63281 0.74993,0 1.19525,0.0937 1.33594,0.28125 0.14056,0.1875 0.49212,0.32813 1.05469,0.42187 0.46868,0.75 0.70305,1.5 0.70312,2.25 z m -54.42187,-39.09375 0,0.5625 c -0.46877,0.65629 -0.82033,1.21879 -1.05469,1.6875 -0.23439,0.46879 -0.82033,0.70316 -1.75781,0.70313 -1.12501,3e-5 -2.10939,-0.42184 -2.95313,-1.26563 -0.18751,-0.74996 -0.28126,-1.40621 -0.28125,-1.96875 -10e-6,-0.56246 0.16406,-1.03121 0.49219,-1.40625 0.32811,-0.37496 0.6328,-0.79683 0.91406,-1.26562 0.37499,0.18754 0.72655,0.23442 1.05469,0.14062 0.32811,-0.0937 0.72655,-0.0937 1.19531,0 0.46874,0.56254 0.98436,0.86723 1.54688,0.91407 0.56248,0.0469 0.84373,0.67972 0.84375,1.89843 z m 37.26562,39.79688 c -5e-5,0.75 -0.2813,1.38281 -0.84375,1.89844 -0.56255,0.51562 -1.2188,0.77343 -1.96875,0.77343 -0.8438,0 -1.45317,-0.16406 -1.82812,-0.49218 -0.37505,-0.32813 -0.6563,-0.72657 -0.84375,-1.19532 -0.18755,-0.46875 -0.32817,-0.98437 -0.42188,-1.54687 -0.0938,-0.5625 -0.32817,-1.07813 -0.70312,-1.54688 0.56245,-0.0937 0.98433,-0.1875 1.26562,-0.28125 0.2812,-0.0937 0.51558,-0.18749 0.70313,-0.28125 0.18745,-0.0937 0.35151,-0.21093 0.49218,-0.35156 0.14058,-0.14062 0.44527,-0.30468 0.91407,-0.49219 0.8437,0.18751 1.5937,0.58594 2.25,1.19532 0.65619,0.60937 0.98432,1.38281 0.98437,2.32031 z M 337.46234,711.604 c -2e-5,0.46877 -0.0938,0.84377 -0.28125,1.125 -0.18752,0.28127 -0.37502,0.6094 -0.5625,0.98438 -0.18752,0.0938 -0.53908,0.23439 -1.05469,0.42187 -0.51564,0.18752 -0.8672,0.28127 -1.05468,0.28125 -0.28127,2e-5 -0.53908,-0.0703 -0.77344,-0.21093 -0.23439,-0.14061 -0.49221,-0.21092 -0.77344,-0.21094 -0.18751,2e-5 -0.32814,0.0235 -0.42187,0.0703 -0.0938,0.0469 -0.23439,0.0703 -0.42188,0.0703 -0.28126,-0.65623 -0.44533,-1.10154 -0.49219,-1.33593 -0.0469,-0.23436 -0.0703,-0.72655 -0.0703,-1.47657 l -0.28125,-0.5625 1.54688,-2.25 c 0.0937,0.0938 0.3281,0.2344 0.70312,0.42188 0.18748,2e-5 0.37498,-0.0234 0.5625,-0.0703 0.18748,-0.0469 0.37498,-0.0703 0.5625,-0.0703 0.28123,3e-5 0.72655,0.18753 1.33594,0.5625 0.60935,0.37503 1.00779,0.65628 1.19531,0.84375 0.18748,0.75002 0.28123,1.21877 0.28125,1.40625 z m 13.5,13.21875 c -3e-5,0.56251 -0.18753,0.98439 -0.5625,1.26563 -0.37503,0.28125 -0.65628,0.65625 -0.84375,1.125 -0.37503,0.1875 -0.70316,0.32813 -0.98437,0.42187 -0.28129,0.0938 -0.60941,0.14063 -0.98438,0.14063 -0.56253,0 -1.10159,-0.28125 -1.61719,-0.84375 -0.51565,-0.5625 -1.05471,-0.9375 -1.61718,-1.125 0.18747,-0.74999 0.39841,-1.45312 0.63281,-2.10938 0.23435,-0.65624 0.63278,-1.26561 1.19531,-1.82812 0.84372,10e-6 1.85153,0.23438 3.02344,0.70312 1.17184,0.46876 1.75778,1.21876 1.75781,2.25 z"
         style="font-size:144px;fill:#ffffff;stroke:#ffffff;stroke-width:4;stroke-linecap:round;stroke-linejoin:round;stroke-miterlimit:4;stroke-opacity:1;stroke-dasharray:none"
         id="path3003"
         inkscape:connector-curvature="0" />
      <path
         d="m 507.89984,639.74463 c -0.37507,0.18759 -0.84382,0.39853 -1.40625,0.63281 -0.56257,0.23447 -1.03132,0.35166 -1.40625,0.35156 -0.28132,10e-5 -0.5157,-0.0937 -0.70312,-0.28125 -0.56258,-0.0937 -1.03132,-0.39834 -1.40625,-0.91406 -0.37507,-0.51553 -0.79695,-0.91397 -1.26563,-1.19531 0.46868,-0.46866 0.72649,-0.82022 0.77344,-1.05469 0.0468,-0.23428 0.16399,-0.67959 0.35156,-1.33594 0.56243,-0.46865 1.14837,-0.72646 1.75781,-0.77343 0.60931,-0.0468 1.24212,-0.21084 1.89844,-0.49219 0.18743,0.1876 0.4218,0.49228 0.70313,0.91406 0.28117,0.42197 0.51555,0.63291 0.70312,0.63281 0.37493,10e-5 0.49211,0.51572 0.35156,1.54688 -0.1407,1.03134 -0.25788,1.68759 -0.35156,1.96875 z m 6.32813,9.98437 c -9e-5,0.28134 -0.0938,0.70321 -0.28125,1.26563 -0.37509,0.18758 -0.6329,0.35164 -0.77344,0.49219 -0.14071,0.1407 -0.30477,0.28133 -0.49219,0.42187 -0.18758,0.14071 -0.42195,0.25789 -0.70312,0.35156 -0.28133,0.0938 -0.70321,0.14071 -1.26563,0.14063 -0.37508,8e-5 -0.7032,-0.0234 -0.98437,-0.0703 -0.28133,-0.0468 -0.60946,-0.11711 -0.98438,-0.21094 -0.18758,-0.37492 -0.37507,-0.77336 -0.5625,-1.19531 -0.18757,-0.4218 -0.28132,-0.86711 -0.28125,-1.33594 0.28118,-1.12492 0.84367,-2.10929 1.6875,-2.95313 l 0.98438,0 c 0.84367,9e-5 1.66398,0.28134 2.46093,0.84375 0.7968,0.56259 1.19523,1.31259 1.19532,2.25 z m -18.84375,-16.73437 c -0.46882,0.3751 -0.961,0.72666 -1.47657,1.05469 -0.51568,0.32822 -1.00787,0.63291 -1.47656,0.91406 -1.21881,10e-5 -2.06256,-0.44522 -2.53125,-1.33594 -0.46881,-0.89052 -0.70318,-1.85146 -0.70312,-2.88281 l 2.10937,-1.96875 c 0.65619,0.3751 1.21869,0.58604 1.6875,0.63281 0.46869,0.047 1.03119,0.11729 1.6875,0.21094 z m 19.26562,30.375 c -8e-5,0.56257 -0.25789,1.00788 -0.77344,1.33594 -0.5157,0.32819 -1.00789,0.63288 -1.47656,0.91406 l -2.10937,0 c -0.56258,-0.18743 -1.05477,-0.44525 -1.47657,-0.77344 -0.42195,-0.32806 -0.63288,-0.86712 -0.63281,-1.61719 -7e-5,-0.56243 0.14055,-1.12493 0.42188,-1.6875 l -0.42188,-0.98437 c 0.56242,7e-5 1.10149,-0.0937 1.61719,-0.28125 0.51555,-0.18743 1.05461,-0.28118 1.61719,-0.28125 0.65617,7e-5 1.33585,0.21101 2.03906,0.63281 0.70304,0.42195 0.96085,1.00788 0.77344,1.75781 0.28116,0.28132 0.42179,0.60945 0.42187,0.98438 z M 480.61859,630.604 c -5e-5,0.3751 -0.37505,0.89073 -1.125,1.54688 -0.75005,0.65635 -1.31254,0.98447 -1.6875,0.98437 -0.75004,10e-5 -1.19536,-0.1874 -1.33594,-0.5625 -0.14067,-0.3749 -0.58598,-0.46865 -1.33593,-0.28125 -0.18755,-0.9374 -0.2813,-1.59364 -0.28125,-1.96875 -5e-5,-0.56239 0.11714,-1.07802 0.35156,-1.54687 0.23433,-0.46865 0.44527,-0.9374 0.63281,-1.40625 0.74996,0.0938 1.52339,0.1876 2.32031,0.28125 0.79683,0.0938 1.57027,0.32823 2.32032,0.70312 -5e-5,0.37511 0.0234,0.75011 0.0703,1.125 0.0468,0.37511 0.0703,0.75011 0.0703,1.125 z m -15.04687,-0.98437 c -0.0938,0.46885 -0.18754,0.7501 -0.28125,0.84375 -0.0938,0.0938 -0.23441,0.28135 -0.42188,0.5625 -3e-5,0.28135 0.0937,0.60947 0.28125,0.98437 -0.46878,0.0938 -0.89066,0.28135 -1.26562,0.5625 -0.37503,0.28135 -0.79691,0.42198 -1.26563,0.42188 -0.37503,10e-5 -0.96097,-0.23428 -1.75781,-0.70313 -0.7969,-0.46865 -1.38284,-0.79677 -1.75781,-0.98437 0.18747,-0.3749 0.25778,-0.7499 0.21093,-1.125 -0.0469,-0.3749 0.0234,-0.7499 0.21094,-1.125 l 2.53125,-1.6875 c 1.03122,0.1876 1.75778,0.39854 2.17969,0.63281 0.42184,0.23448 0.86715,0.77354 1.33594,1.61719 z m 42.1875,45.70312 c -0.37508,0.46881 -0.79695,0.89068 -1.26563,1.26563 -0.46882,0.37505 -1.0782,0.56255 -1.82812,0.5625 -0.75008,5e-5 -1.2657,-0.18745 -1.54688,-0.5625 -0.28132,-0.37495 -0.79694,-0.56245 -1.54687,-0.5625 0.18743,-0.93744 0.4218,-1.78119 0.70312,-2.53125 0.28118,-0.74994 0.79681,-1.40619 1.54688,-1.96875 l 0.98437,0 c 0.46868,6e-5 1.05462,0.23443 1.75781,0.70312 0.70305,0.46881 1.05462,0.98444 1.05469,1.54688 -7e-5,0.18756 -0.0235,0.35162 -0.0703,0.49219 -0.0469,0.14068 -0.0704,0.30474 -0.0703,0.49218 z M 451.22797,631.1665 c -0.56252,0.46885 -1.19533,0.89073 -1.89844,1.26563 -0.70314,0.3751 -1.47658,0.5626 -2.32031,0.5625 -0.56252,10e-5 -1.21877,-0.1874 -1.96875,-0.5625 l 0,-1.26563 c -2e-5,-0.1874 -0.0469,-0.37489 -0.14063,-0.5625 -0.0938,-0.18739 -0.14064,-0.37489 -0.14062,-0.5625 -2e-5,-1.03114 0.37498,-1.71083 1.125,-2.03906 0.74998,-0.32802 1.54686,-0.49208 2.39062,-0.49219 0.28123,0.46886 0.67967,0.79698 1.19531,0.98438 0.51561,0.1876 0.72655,0.65635 0.63282,1.40625 z m 43.875,48.09375 c -0.28132,0.46881 -0.586,0.96099 -0.91407,1.47657 -0.32818,0.51567 -0.72662,0.96098 -1.19531,1.33593 -0.37506,0.18755 -0.75006,0.2813 -1.125,0.28125 -0.75006,5e-5 -1.38287,-0.21088 -1.89844,-0.63281 -0.51568,-0.42182 -1.10162,-0.72651 -1.75781,-0.91406 l 0.70313,-2.8125 c 0.37494,-0.18745 0.70306,-0.32807 0.98437,-0.42188 0.28119,-0.0937 0.42182,-0.42182 0.42188,-0.98437 l 3.51562,0.42187 z m -44.29688,-34.3125 0,0.84375 c -0.46877,0.46884 -0.89064,0.79696 -1.26562,0.98438 -0.37502,0.18758 -0.70315,0.65633 -0.98438,1.40625 -0.37501,-0.0937 -0.82033,-0.21085 -1.33594,-0.35156 -0.51564,-0.14054 -0.8672,-0.35148 -1.05468,-0.63282 -0.84377,-0.37491 -1.26564,-0.98429 -1.26563,-1.82812 -10e-6,-1.31241 0.46874,-2.43741 1.40625,-3.375 l 2.67188,0 c 0.28123,0.28134 0.5156,0.53915 0.70312,0.77344 0.18748,0.23446 0.51561,0.4454 0.98438,0.63281 -2e-5,0.28134 0.0234,0.53915 0.0703,0.77344 0.0469,0.23446 0.0703,0.49227 0.0703,0.77343 z m 29.25,36.42188 c -0.18755,0.37505 -0.37505,0.72661 -0.5625,1.05469 -0.18755,0.32817 -0.51567,0.58598 -0.98437,0.77343 -0.4688,0.56255 -1.2188,0.8438 -2.25,0.84375 -0.18755,5e-5 -0.42192,-0.0234 -0.70313,-0.0703 -0.28129,-0.0468 -0.51567,-0.0703 -0.70312,-0.0703 -0.18755,-0.2812 -0.37505,-0.58589 -0.5625,-0.91406 -0.18755,-0.32808 -0.4688,-0.49214 -0.84375,-0.49219 -4e-5,-0.4687 0.0937,-0.93745 0.28125,-1.40625 0.18745,-0.4687 0.2812,-0.93745 0.28125,-1.40625 -5e-5,-0.4687 0.39839,-0.82026 1.19531,-1.05469 0.79683,-0.23432 1.42964,-0.35151 1.89844,-0.35156 0.6562,5e-5 1.12495,0.0938 1.40625,0.28125 0.2812,0.18755 0.49214,0.42193 0.63281,0.70312 0.14058,0.28131 0.25776,0.60943 0.35156,0.98438 0.0937,0.37505 0.2812,0.75005 0.5625,1.125 z m -29.10937,-18.28125 c -0.46877,0.37507 -0.86721,0.63288 -1.19532,0.77344 -0.32814,0.14069 -0.60939,0.23444 -0.84375,0.28125 -0.23439,0.0469 -0.51564,0.0704 -0.84375,0.0703 -0.32814,7e-5 -0.72657,0.0938 -1.19531,0.28125 -1.50001,-0.65618 -2.25001,-1.68743 -2.25,-3.09375 -10e-6,-0.37493 0.0234,-0.72649 0.0703,-1.05469 0.0469,-0.32805 0.0703,-0.67961 0.0703,-1.05469 0.46873,-0.18742 0.96092,-0.39836 1.47656,-0.63281 0.51561,-0.2343 1.05467,-0.35149 1.61719,-0.35156 0.93748,7e-5 1.8281,0.28132 2.67187,0.84375 -2e-5,0.46882 0.0703,0.8907 0.21094,1.26562 0.14061,0.37508 0.21092,0.79695 0.21094,1.26563 z m 12.79687,19.40625 c -0.46878,0.4688 -0.86722,0.86724 -1.19531,1.19531 -0.32816,0.32817 -0.82034,0.53911 -1.47656,0.63281 -0.46878,-0.18745 -0.98441,-0.30464 -1.54688,-0.35156 -0.56253,-0.0468 -1.07815,-0.16401 -1.54687,-0.35156 -3e-5,-0.4687 -0.0703,-0.89058 -0.21094,-1.26563 -0.14065,-0.37495 -0.21096,-0.79682 -0.21094,-1.26562 -2e-5,-0.56245 0.23435,-1.0312 0.70313,-1.40625 0.46872,-0.37495 0.79684,-0.79682 0.98437,-1.26563 0.74997,0.0938 1.4531,0.16412 2.10938,0.21094 0.65622,0.0469 1.35934,0.30474 2.10937,0.77344 -3e-5,0.4688 0.0469,0.98443 0.14063,1.54687 0.0937,0.56255 0.14059,1.07818 0.14062,1.54688 z m -12.375,-4.21875 0,1.26562 c -0.0938,0.56256 -0.46877,1.12506 -1.125,1.6875 -0.65627,0.56255 -1.26564,0.8438 -1.82812,0.84375 -0.0938,5e-5 -0.32814,-0.0937 -0.70313,-0.28125 -0.46876,5e-5 -0.98439,-0.18745 -1.54687,-0.5625 -0.28127,-0.46869 -0.56252,-0.91401 -0.84375,-1.33593 -0.28127,-0.42183 -0.42189,-0.91401 -0.42188,-1.47657 -10e-6,-0.46869 0.14061,-0.86713 0.42188,-1.19531 0.28123,-0.32807 0.56248,-0.63276 0.84375,-0.91406 0.46873,-0.18745 1.10154,-0.25776 1.89843,-0.21094 0.79686,0.0469 1.42967,0.0704 1.89844,0.0703 0.28123,0.65631 0.46873,1.05475 0.5625,1.19532 0.0937,0.14068 0.37498,0.44536 0.84375,0.91406 z m 0,17.57812 c -0.0938,0.46879 -0.11721,0.84379 -0.0703,1.125 0.0469,0.28129 -0.0703,0.65629 -0.35156,1.125 -0.46877,0.18754 -0.96096,0.46879 -1.47657,0.84375 -0.51564,0.37504 -1.00782,0.56254 -1.47656,0.5625 -0.28126,4e-5 -0.70314,-0.0937 -1.26562,-0.28125 -0.65627,-0.93746 -1.31252,-1.68746 -1.96875,-2.25 0.28123,-0.93746 0.53905,-1.59371 0.77343,-1.96875 0.23437,-0.37496 0.58593,-0.93746 1.05469,-1.6875 1.12499,0.0938 2.03905,0.30473 2.74219,0.63282 0.70311,0.32816 1.38279,0.96097 2.03906,1.89843 z m -0.14062,16.45313 c -0.18752,1.59377 -0.67971,2.60158 -1.47657,3.02344 -0.79689,0.42189 -1.89845,0.63282 -3.30468,0.63281 -0.46877,-0.46873 -0.8672,-0.96092 -1.19532,-1.47656 -0.32813,-0.51561 -0.4922,-1.14842 -0.49218,-1.89844 -2e-5,-0.28123 0.0469,-0.53904 0.14062,-0.77344 0.0937,-0.23435 0.18749,-0.49217 0.28125,-0.77344 0.93749,-0.74997 1.96874,-1.12497 3.09375,-1.125 0.37498,3e-5 0.84373,0.0938 1.40625,0.28125 0.18748,0.37503 0.42186,0.72659 0.70313,1.05469 0.28123,0.32815 0.56248,0.67971 0.84375,1.05469 z m -0.42188,17.71875 c -2e-5,0.46875 -0.0703,0.9375 -0.21094,1.40625 -0.14064,0.46875 -0.21095,0.9375 -0.21093,1.40625 -0.56252,0 -1.12502,0.0937 -1.6875,0.28125 -0.56252,0.1875 -1.12502,0.28125 -1.6875,0.28125 -0.93752,-0.46875 -1.82814,-1.125 -2.67188,-1.96875 0.0937,-0.1875 0.18749,-0.375 0.28125,-0.5625 0.0937,-0.1875 0.14061,-0.375 0.14063,-0.5625 -0.0938,-0.28125 -0.14064,-0.60937 -0.14063,-0.98438 0.46874,-0.46874 0.98436,-0.91406 1.54688,-1.33593 0.56248,-0.42187 1.21873,-0.63281 1.96875,-0.63282 0.46873,10e-6 0.84373,0.14063 1.125,0.42188 l 1.125,-0.28125 c 0.0937,0.46875 0.18748,0.89063 0.28125,1.26562 0.0937,0.37501 0.1406,0.79688 0.14062,1.26563 z"
         style="font-size:144px;fill:#ffffff;stroke:#ffffff;stroke-width:4;stroke-linecap:round;stroke-linejoin:round;stroke-miterlimit:4;stroke-opacity:1;stroke-dasharray:none"
         id="path3005"
         inkscape:connector-curvature="0" />
      <path
         d="m 602.96234,629.479 c -8e-5,0.75011 -0.37508,1.45323 -1.125,2.10938 -0.75008,0.65635 -1.50008,0.98447 -2.25,0.98437 l -0.84375,0 c -0.37508,-0.46865 -0.7032,-0.91396 -0.98437,-1.33593 -0.28133,-0.42178 -0.56258,-0.86709 -0.84375,-1.33594 0.18742,-0.5624 0.30461,-0.91396 0.35156,-1.05469 0.0468,-0.14052 -0.0235,-0.49208 -0.21094,-1.05469 1.40617,-0.65614 2.6718,-1.03114 3.79688,-1.125 0.74992,0.75011 1.35929,1.21886 1.82812,1.40625 0.18742,0.75011 0.28117,1.21886 0.28125,1.40625 z m -12.23437,0.14063 0,0.84375 c -0.65632,0.28135 -1.03132,0.7501 -1.125,1.40625 -0.37507,0.0938 -0.72663,0.1876 -1.05469,0.28125 -0.32819,0.0938 -0.72663,0.14072 -1.19531,0.14062 -0.28132,10e-5 -0.56257,-0.0468 -0.84375,-0.14062 -0.28132,-0.0937 -0.60944,-0.14053 -0.98438,-0.14063 -6e-5,-0.46865 -0.0704,-0.86708 -0.21094,-1.19531 -0.14069,-0.32802 -0.211,-0.67958 -0.21093,-1.05469 -7e-5,-0.65614 0.30462,-1.24208 0.91406,-1.75781 0.60931,-0.51552 1.14837,-0.91396 1.61719,-1.19531 0.46868,0.0938 0.7968,0.23448 0.98437,0.42187 0.18743,0.18761 0.51556,0.18761 0.98438,0 0.18743,0.37511 0.4218,0.75011 0.70312,1.125 0.28118,0.37511 0.42181,0.79698 0.42188,1.26563 z m -11.67188,0.14062 -1.96875,2.8125 c -0.56255,-0.0937 -1.0313,-0.14052 -1.40625,-0.14062 -0.37505,10e-5 -0.70318,-0.0233 -0.98437,-0.0703 -0.28131,-0.0468 -0.56256,-0.1874 -0.84375,-0.42188 -0.28131,-0.23427 -0.65631,-0.67959 -1.125,-1.33594 l 0,-1.125 c -6e-5,-0.37489 0.0468,-0.65614 0.14062,-0.84375 0.0937,-0.18739 0.23432,-0.42177 0.42188,-0.70312 0.37494,-0.3749 0.77338,-0.65615 1.19531,-0.84375 0.42182,-0.1874 0.86713,-0.3749 1.33594,-0.5625 0.46869,0.28135 0.84369,0.5626 1.125,0.84375 0.28119,0.28135 0.65619,0.46885 1.125,0.5625 z m -13.78125,-1.26562 c -4e-5,1.03135 -0.25786,1.92198 -0.77344,2.67187 -0.51566,0.7501 -1.33598,1.1251 -2.46093,1.125 l -1.26563,0 c -0.65629,-0.9374 -0.98441,-1.82802 -0.98437,-2.67187 l 0,-1.125 c 0.56246,-0.46865 0.91402,-0.86708 1.05468,-1.19531 0.14059,-0.32802 0.63278,-0.49209 1.47657,-0.49219 0.6562,10e-5 1.19527,0.16417 1.61718,0.49219 0.42184,0.32823 0.86715,0.72666 1.33594,1.19531 z m -12.51562,0.98437 c -4e-5,0.93761 -0.14066,1.6876 -0.42188,2.25 -0.28128,0.5626 -0.93753,0.84385 -1.96875,0.84375 -0.46878,10e-5 -0.89065,-0.11708 -1.26562,-0.35156 -0.37503,-0.23427 -0.79691,-0.49209 -1.26563,-0.77344 -0.0938,-0.1874 -0.18753,-0.39833 -0.28125,-0.63281 -0.0938,-0.23427 -0.14065,-0.49208 -0.14062,-0.77344 -3e-5,-0.84364 0.35153,-1.49989 1.05468,-1.96875 0.7031,-0.46864 1.42966,-0.70302 2.17969,-0.70312 0.18747,10e-5 0.39841,0.0235 0.63281,0.0703 0.23435,0.047 0.49216,0.0704 0.77344,0.0703 0.0937,0.37511 0.23434,0.70323 0.42188,0.98438 0.18746,0.28135 0.28121,0.60948 0.28125,0.98437 z m 36.98437,48.65625 c -7e-5,0.28131 -0.0938,0.60943 -0.28125,0.98438 -0.75007,0.75005 -1.336,1.19536 -1.75781,1.33594 -0.42194,0.14067 -1.1485,0.25786 -2.17969,0.35156 -0.46881,-0.37495 -0.75006,-0.77339 -0.84375,-1.19531 -0.0938,-0.42183 -0.37506,-0.82026 -0.84375,-1.19532 l 1.26563,-2.53125 0.84375,0 c 0.18743,-0.0937 0.42181,-0.21088 0.70312,-0.35156 0.28118,-0.14057 0.56243,-0.21088 0.84375,-0.21094 0.18743,6e-5 0.56243,0.0938 1.125,0.28125 0.18743,0.46881 0.42181,0.89068 0.70313,1.26563 0.28118,0.37505 0.4218,0.79693 0.42187,1.26562 z m -48.51562,-47.95312 c -0.18752,0.46885 -0.37502,0.86729 -0.5625,1.19531 -0.18752,0.32823 -0.28127,0.77354 -0.28125,1.33594 l -0.84375,0 c -0.18752,0.1876 -0.30471,0.39854 -0.35157,0.63281 -0.0469,0.23447 -0.16408,0.44541 -0.35156,0.63281 -0.75002,-0.1874 -1.6172,-0.49209 -2.60156,-0.91406 -0.98439,-0.42177 -1.47658,-1.14834 -1.47656,-2.17969 -2e-5,-0.84364 0.28123,-1.52333 0.84375,-2.03906 0.56248,-0.51552 1.21873,-0.77333 1.96875,-0.77344 0.37498,1.1e-4 0.84373,0.0939 1.40625,0.28125 0.18748,0.46886 0.5156,0.79698 0.98437,0.98438 0.46873,0.1876 0.89061,0.46885 1.26563,0.84375 z m 36.28125,48.09375 c -6e-5,0.56255 -0.16412,1.05474 -0.49219,1.47656 -0.32818,0.42193 -0.72662,0.77349 -1.19531,1.05469 l -0.5625,-0.28125 c -0.18756,5e-5 -0.30475,0.0235 -0.35157,0.0703 -0.0469,0.0469 -0.16411,0.0704 -0.35156,0.0703 -0.75005,6e-5 -1.33599,-0.28119 -1.75781,-0.84375 -0.42193,-0.56244 -0.63287,-1.21869 -0.63281,-1.96875 -6e-5,-0.93744 0.37494,-1.68744 1.125,-2.25 0.46869,6e-5 1.17182,-0.0937 2.10937,-0.28125 0.56245,0.28131 1.05463,0.65631 1.47656,1.125 0.42182,0.46881 0.63276,1.07818 0.63282,1.82813 z m -38.67188,-37.26563 c -2e-5,0.46884 -0.0469,0.89072 -0.14062,1.26563 -0.0938,0.37509 -0.18752,0.75009 -0.28125,1.125 l -1.26563,0 c -0.28127,9e-5 -0.65626,0.23446 -1.125,0.70312 -1.50001,-0.65616 -2.53126,-1.73428 -3.09375,-3.23437 0.46874,-0.37491 0.96093,-0.74991 1.47656,-1.125 0.51561,-0.37491 0.96093,-0.79678 1.33594,-1.26563 0.65624,0.0938 1.33592,0.32822 2.03906,0.70313 0.70311,0.37509 1.05467,0.98447 1.05469,1.82812 z m 1.6875,11.67188 c -0.46877,0.65633 -0.84377,1.4532 -1.125,2.39062 -0.46877,-0.0937 -0.91408,-0.0937 -1.33594,0 -0.42189,0.0938 -0.8672,0.14071 -1.33593,0.14063 -0.65627,8e-5 -1.17189,-0.14055 -1.54688,-0.42188 -0.18751,-0.46867 -0.42189,-0.89054 -0.70312,-1.26562 -0.28127,-0.37492 -0.42189,-0.7968 -0.42188,-1.26563 -1e-5,-0.18742 0.0937,-0.56242 0.28125,-1.125 0.37499,-0.37491 0.79686,-0.65616 1.26563,-0.84375 0.46873,-0.18741 0.89061,-0.46866 1.26562,-0.84375 0.65623,0.0938 1.17186,0.2579 1.54688,0.49219 0.37498,0.23446 0.79685,0.49227 1.26562,0.77344 0.18748,0.37508 0.32811,0.72664 0.42188,1.05469 0.0937,0.3282 0.23435,0.63289 0.42187,0.91406 z m 23.0625,24.89062 c -0.28129,0.84381 -0.63285,1.64068 -1.05469,2.39063 -0.42191,0.75005 -1.19535,1.12505 -2.32031,1.125 -0.37504,-0.18745 -0.77348,-0.32807 -1.19531,-0.42188 -0.42191,-0.0937 -0.77348,-0.28119 -1.05469,-0.5625 -0.28129,-0.56244 -0.42191,-1.17182 -0.42187,-1.82812 -4e-5,-0.2812 0.0468,-0.51557 0.14062,-0.70313 0.0937,-0.18744 0.18746,-0.42182 0.28125,-0.70312 l 1.82813,-1.40625 1.40625,-0.14063 c 0.37496,0.37506 0.77339,0.72662 1.19531,1.05469 0.42183,0.32818 0.82027,0.72662 1.19531,1.19531 z m -22.5,-12.375 c -0.18752,0.75007 -0.46877,1.40632 -0.84375,1.96875 -0.37502,0.56257 -0.51564,1.26569 -0.42187,2.10938 -0.46877,6e-5 -0.89065,-0.0234 -1.26563,-0.0703 -0.37502,-0.0468 -0.75002,-0.0702 -1.125,-0.0703 -0.0938,7e-5 -0.23439,0.0235 -0.42187,0.0703 -0.18752,0.0469 -0.28127,0.11725 -0.28125,0.21093 -0.46877,-0.37493 -0.79689,-0.63275 -0.98438,-0.77343 -0.18751,-0.14057 -0.56251,-0.30463 -1.125,-0.49219 -1e-5,-0.37494 0.0234,-0.67962 0.0703,-0.91406 0.0469,-0.23431 0.11718,-0.539 0.21094,-0.91407 -10e-6,-0.0937 -0.0938,-0.32806 -0.28125,-0.70312 0.37499,-0.46868 0.8203,-0.914 1.33594,-1.33594 0.51561,-0.42181 1.14842,-0.63274 1.89844,-0.63281 0.65623,7e-5 1.21873,0.32819 1.6875,0.98437 z m 9,13.78125 c -0.84378,1.31256 -1.96878,1.9688 -3.375,1.96875 -0.37502,5e-5 -0.93752,-0.0937 -1.6875,-0.28125 -0.0938,-0.37494 -0.2344,-0.70307 -0.42187,-0.98437 -0.18753,-0.2812 -0.28128,-0.6562 -0.28125,-1.125 l 0,-0.70313 c 0.18747,-0.46869 0.39841,-0.86713 0.63281,-1.19531 0.23435,-0.32807 0.35154,-0.72651 0.35156,-1.19531 0.74998,6e-5 1.4531,0.11724 2.10938,0.35156 0.65622,0.23443 1.35934,0.44537 2.10937,0.63281 0.18747,0.46881 0.28122,0.89068 0.28125,1.26563 -3e-5,0.37505 0.0937,0.79693 0.28125,1.26562 z m 51.46875,52.875 c -0.65633,0.65625 -1.31258,1.05469 -1.96875,1.19532 -0.65633,0.14062 -1.35945,0.35156 -2.10937,0.63281 -1.31258,-0.84375 -1.96883,-1.92188 -1.96875,-3.23438 -8e-5,-0.56249 0.32805,-1.19531 0.98437,-1.89843 0.65617,-0.70312 1.31242,-1.05469 1.96875,-1.05469 0.74992,0 1.21867,0.16407 1.40625,0.49219 0.18742,0.32813 0.51555,0.53906 0.98438,0.63281 0.37492,0.5625 0.53898,0.96094 0.49218,1.19531 -0.047,0.23438 -0.0704,0.63282 -0.0703,1.19531 -8e-5,0.375 0.0937,0.65625 0.28125,0.84375 z m -61.17187,-53.85937 c -0.28127,0.56255 -0.58596,1.14849 -0.91407,1.75781 -0.32814,0.60943 -0.77345,1.10162 -1.33593,1.47656 -0.46877,5e-5 -0.93752,0.0235 -1.40625,0.0703 -0.46877,0.0469 -0.93752,0.0704 -1.40625,0.0703 -2e-5,-0.6562 -0.18752,-1.07807 -0.5625,-1.26563 -0.37502,-0.18744 -0.56252,-0.70307 -0.5625,-1.54687 -2e-5,-0.4687 0.14061,-0.91401 0.42187,-1.33594 0.28124,-0.42182 0.60936,-0.82026 0.98438,-1.19531 l 0.5625,0 c 0.18748,5e-5 0.35154,-0.0234 0.49218,-0.0703 0.14061,-0.0468 0.30467,-0.0703 0.49219,-0.0703 l 0.84375,0 z m 49.35937,53.29687 c -7e-5,0.375 -0.0938,0.70313 -0.28125,0.98438 -0.18757,0.28125 -0.37507,0.60937 -0.5625,0.98437 -0.93757,0.46875 -2.06256,0.70313 -3.375,0.70313 -0.37506,-0.375 -0.67975,-0.75 -0.91406,-1.125 -0.23444,-0.375 -0.49225,-0.75 -0.77344,-1.125 -6e-5,-0.46875 0.0468,-0.91406 0.14063,-1.33594 0.0937,-0.42187 0.14056,-0.86718 0.14062,-1.33594 0.56244,10e-6 0.89056,-0.14062 0.98438,-0.42187 0.0937,-0.28125 0.18743,-0.65625 0.28125,-1.125 0.93743,0.375 1.61712,0.63282 2.03906,0.77344 0.42181,0.14062 0.91399,0.63281 1.47656,1.47656 0.18743,0.28125 0.37493,0.51563 0.5625,0.70312 0.18743,0.18751 0.28118,0.46875 0.28125,0.84375 z m -50.20312,-41.34375 c -2e-5,0.75005 -0.0938,1.42973 -0.28125,2.03907 -0.18752,0.60941 -0.28127,1.24222 -0.28125,1.89843 -0.46877,0.18754 -0.93752,0.37504 -1.40625,0.5625 -0.46877,0.18754 -0.93752,0.28129 -1.40625,0.28125 l -1.40625,0 c -0.18752,-0.74996 -0.39845,-1.24215 -0.63282,-1.47656 -0.23438,-0.23433 -0.35157,-0.86715 -0.35156,-1.89844 -1e-5,-0.4687 0.0469,-0.79683 0.14063,-0.98437 l 3.09375,-1.82813 c 0.46873,0.37505 0.86717,0.6563 1.19531,0.84375 0.32811,0.18755 0.77342,0.37505 1.33594,0.5625 z m 38.25,40.5 c -0.28131,0.5625 -0.44537,1.07813 -0.49219,1.54688 -0.0469,0.46875 -0.25787,0.9375 -0.63281,1.40625 -0.75006,0.28125 -1.40631,0.42187 -1.96875,0.42187 -0.75006,0 -1.38287,-0.28125 -1.89844,-0.84375 -0.51568,-0.5625 -0.77349,-1.21875 -0.77344,-1.96875 -5e-5,-0.28124 0.0937,-0.60937 0.28125,-0.98437 0.18745,-0.1875 0.42182,-0.39844 0.70313,-0.63281 0.28119,-0.23438 0.51557,-0.49219 0.70312,-0.77344 l 0.42188,-0.42188 c 1.40619,10e-6 2.17963,0.14063 2.32031,0.42188 0.14057,0.28125 0.58588,0.89063 1.33594,1.82812 z m -37.6875,-26.29687 c -0.18752,0.65628 -0.37502,1.07815 -0.5625,1.26562 -0.18752,0.18753 -0.2344,0.6094 -0.14063,1.26563 -0.46877,0.18752 -0.93752,0.37502 -1.40625,0.5625 -0.46877,0.18752 -0.93752,0.28127 -1.40625,0.28125 -0.28126,2e-5 -0.56251,-0.0234 -0.84375,-0.0703 -0.28126,-0.0468 -0.56251,-0.0703 -0.84375,-0.0703 -0.18751,-0.46872 -0.42189,-0.8906 -0.70312,-1.26562 -0.28127,-0.37497 -0.42189,-0.84372 -0.42188,-1.40625 l 0,-0.84375 c 0.65624,-1.31247 1.49999,-1.96872 2.53125,-1.96875 0.46874,3e-5 0.91405,0.0469 1.33594,0.14062 0.42186,0.0938 0.86717,0.14066 1.33594,0.14063 0.18748,0.37503 0.35154,0.72659 0.49218,1.05469 0.14061,0.32815 0.35155,0.63284 0.63282,0.91406 z m 24.75,27 c -5e-5,0.75 -0.23442,1.45312 -0.70313,2.10937 -0.46879,0.65625 -1.12504,0.98438 -1.96875,0.98438 -0.75004,0 -1.42973,-0.25782 -2.03906,-0.77344 -0.60942,-0.51562 -0.9141,-1.19531 -0.91406,-2.03906 -4e-5,-0.75 0.18746,-1.28906 0.5625,-1.61719 0.37496,-0.32812 0.79683,-0.72656 1.26562,-1.19531 0.74996,0.0937 1.42965,0.23438 2.03906,0.42187 0.60934,0.18751 1.1484,0.56251 1.61719,1.125 0.0937,0.18751 0.14058,0.51563 0.14063,0.98438 z m -25.03125,-14.90625 c -0.0938,0.46876 -0.21096,0.91408 -0.35157,1.33594 -0.14064,0.42189 -0.39845,0.77345 -0.77343,1.05468 -0.93752,0.37502 -1.68752,0.56252 -2.25,0.5625 -0.93752,2e-5 -1.57033,-0.30467 -1.89844,-0.91406 -0.32814,-0.60936 -0.53908,-1.28905 -0.63281,-2.03906 0.46873,-0.93748 1.26561,-1.96873 2.39062,-3.09375 0.46874,0.46877 0.89061,0.6797 1.26563,0.63281 0.37498,-0.0469 0.79685,0.16408 1.26562,0.63281 -2e-5,0.28127 0.0937,0.6094 0.28125,0.98438 0.28123,0.0938 0.51561,0.37502 0.70313,0.84375 z m 12.65625,16.45312 c -0.75003,0.1875 -1.2891,0.42188 -1.61719,0.70313 -0.32816,0.28125 -0.86722,0.42187 -1.61719,0.42187 -0.65628,0 -1.1719,-0.1875 -1.54687,-0.5625 -0.18753,-0.375 -0.39847,-0.70312 -0.63282,-0.98437 -0.2344,-0.28125 -0.35158,-0.65625 -0.35156,-1.125 -2e-5,-0.375 0.0703,-0.70312 0.21094,-0.98438 0.1406,-0.28124 0.25778,-0.56249 0.35156,-0.84375 0.46872,-0.28124 0.91404,-0.58593 1.33594,-0.91406 0.42185,-0.32812 0.96091,-0.49218 1.61719,-0.49219 0.56247,10e-6 0.98434,0.0469 1.26562,0.14063 0.0937,0.65625 0.28122,1.05469 0.5625,1.19531 0.28122,0.14063 0.42184,0.44532 0.42188,0.91406 -4e-5,0.28126 -0.0704,0.53907 -0.21094,0.77344 -0.14066,0.23438 -0.21097,0.44531 -0.21094,0.63281 -3e-5,0.1875 0.0468,0.375 0.14063,0.5625 0.0937,0.1875 0.18746,0.375 0.28125,0.5625 z m -13.78125,-3.23437 c -0.0938,1.6875 -0.84377,3 -2.25,3.9375 -0.56252,-0.375 -1.21877,-0.46875 -1.96875,-0.28125 -0.28127,-0.28125 -0.53908,-0.60938 -0.77344,-0.98438 -0.23439,-0.375 -0.53908,-0.65625 -0.91406,-0.84375 l 0,-0.98437 c -2e-5,-0.375 0.0469,-0.70312 0.14062,-0.98438 0.0937,-0.28124 0.14061,-0.56249 0.14063,-0.84375 0.46873,-0.28124 0.96092,-0.51562 1.47656,-0.70312 0.51561,-0.1875 1.0078,-0.46875 1.47656,-0.84375 0.84373,0.375 1.33592,0.77344 1.47656,1.19531 0.14061,0.42188 0.53905,0.86719 1.19532,1.33594 z"
         style="font-size:144px;fill:#ffffff;stroke:#ffffff;stroke-width:4;stroke-linecap:round;stroke-linejoin:round;stroke-miterlimit:4;stroke-opacity:1;stroke-dasharray:none"
         id="path3007"
         inkscape:connector-curvature="0" />
      <path
         d="m 715.18109,629.90088 -1.54687,2.25 c -0.56261,0.1876 -1.03135,0.28135 -1.40625,0.28125 -0.3751,10e-5 -0.7501,-0.0468 -1.125,-0.14063 -0.3751,-0.0937 -0.79698,-0.14052 -1.26563,-0.14062 -1e-4,-0.1874 -0.14072,-0.70303 -0.42187,-1.54688 -0.28135,-0.84364 -0.42198,-1.31239 -0.42188,-1.40625 -1e-4,-0.56239 0.1874,-0.96083 0.5625,-1.19531 0.3749,-0.23427 0.70303,-0.53896 0.98438,-0.91406 0.28115,-0.0937 0.53896,-0.16396 0.77343,-0.21094 0.23428,-0.0468 0.49209,-0.0702 0.77344,-0.0703 0.46865,10e-5 0.98427,0.0938 1.54688,0.28125 z m 0,14.20312 c -0.0939,0.37509 -0.14073,0.93759 -0.14062,1.6875 -1.1e-4,1.03134 -0.44542,1.7579 -1.33594,2.17969 -0.89073,0.42196 -1.75791,0.72665 -2.60156,0.91406 -0.5626,-0.18741 -0.91416,-0.42179 -1.05469,-0.70312 -0.14072,-0.28117 -0.44541,-0.60929 -0.91406,-0.98438 -10e-5,-0.46866 -0.0704,-0.8671 -0.21094,-1.19531 -0.14072,-0.32804 -0.21104,-0.72647 -0.21094,-1.19531 0.84365,-0.84366 1.45303,-1.78116 1.82813,-2.8125 0.1874,0.18759 0.32802,0.32821 0.42187,0.42187 0.0936,0.0938 0.28115,0.23447 0.5625,0.42188 0.46865,9e-5 0.9374,-0.14054 1.40625,-0.42188 z m 0.14063,18.42188 c -0.18761,0.75007 -0.46886,1.50007 -0.84375,2.25 -0.37511,0.75007 -1.07823,1.12506 -2.10938,1.125 -0.65635,6e-5 -1.21885,-0.21087 -1.6875,-0.63281 -0.46885,-0.42181 -0.98447,-0.82025 -1.54687,-1.19532 0.1874,-0.65618 0.23427,-1.12493 0.14062,-1.40625 -0.0939,-0.28118 0.0468,-0.84368 0.42188,-1.6875 0.65615,-0.0937 1.00771,-0.35149 1.05468,-0.77343 0.0468,-0.42181 0.44522,-0.58587 1.19532,-0.49219 0.0937,7e-5 0.1874,0.0235 0.28125,0.0703 0.0937,0.047 0.23427,0.0704 0.42187,0.0703 0.28115,8e-5 0.51552,-0.0937 0.70313,-0.28125 l 1.40625,0.84375 c -1.1e-4,0.18758 -0.0939,0.46883 -0.28125,0.84375 0.0936,0.18757 0.23427,0.39851 0.42187,0.63282 0.1874,0.23444 0.32802,0.44538 0.42188,0.63281 z m -0.14063,15.46875 c -1e-4,0.18755 0.0233,0.37505 0.0703,0.5625 0.0468,0.18755 0.0702,0.37505 0.0703,0.5625 -0.46886,0.6563 -0.86729,1.19536 -1.19532,1.61719 -0.32822,0.42192 -0.58604,0.86723 -0.77343,1.33593 -0.28136,0.0938 -0.70323,0.14068 -1.26563,0.14063 -1.1251,5e-5 -1.89853,-0.39839 -2.32031,-1.19531 -0.42197,-0.79683 -0.77354,-1.61714 -1.05469,-2.46094 0.46865,-0.4687 0.9374,-0.98432 1.40625,-1.54688 0.46865,-0.56244 1.07803,-0.84369 1.82813,-0.84375 0.3749,6e-5 0.9374,0.0938 1.6875,0.28125 0.37489,0.0938 0.70302,0.18756 0.98437,0.28125 0.1874,0.0938 0.3749,0.23443 0.5625,0.42188 0.3749,0.37505 0.3749,0.6563 0,0.84375 z m 0,18.28125 c -0.1876,0.46878 -0.49229,0.79691 -0.91406,0.98437 -0.42198,0.18754 -0.72667,0.51566 -0.91406,0.98438 l -1.6875,0 c -0.9376,3e-5 -1.57041,-0.25778 -1.89844,-0.77344 -0.32822,-0.51559 -0.72666,-1.1484 -1.19531,-1.89844 0.28115,-0.65621 0.72646,-1.31246 1.33593,-1.96875 0.60928,-0.65621 1.28897,-0.98433 2.03907,-0.98437 0.46865,4e-5 0.9374,0.14066 1.40625,0.42187 l 0.5625,-0.14062 c 0.18739,0.56254 0.42177,1.1016 0.70312,1.61719 0.28115,0.51566 0.46865,1.1016 0.5625,1.75781 z m -0.14062,15.60937 c -1.1e-4,0.37502 -0.0235,0.70315 -0.0703,0.98438 -0.047,0.28127 -0.0235,0.60939 0.0703,0.98437 -0.46886,0.18752 -0.93761,0.46877 -1.40625,0.84375 -0.46886,0.37502 -0.9376,0.56252 -1.40625,0.5625 -0.9376,2e-5 -1.64073,-0.18748 -2.10938,-0.5625 -0.46885,-0.37498 -0.98447,-0.8906 -1.54687,-1.54687 l 0,-0.5625 c -10e-5,-0.56248 -0.0235,-0.93748 -0.0703,-1.125 -0.047,-0.18748 -0.047,-0.35154 0,-0.49219 0.0468,-0.1406 0.21084,-0.28123 0.49219,-0.42187 0.28115,-0.14061 0.7499,-0.39842 1.40625,-0.77344 0.1874,-0.0937 0.39834,-0.18748 0.63281,-0.28125 0.23428,-0.0937 0.44522,-0.1406 0.63282,-0.14063 1.1249,3e-5 2.15614,0.46878 3.09375,1.40625 0.18739,0.56252 0.28114,0.93752 0.28125,1.125 z m -73.6875,-71.01562 c -3e-5,0.75009 -0.25785,1.33603 -0.77344,1.75781 -0.51565,0.42197 -0.91409,0.91415 -1.19531,1.47656 -1.03128,-0.28116 -2.01565,-0.42178 -2.95313,-0.42187 -0.84377,-1.03116 -1.26565,-1.92179 -1.26562,-2.67188 -3e-5,-0.46865 0.11716,-0.89053 0.35156,-1.26562 0.23435,-0.37491 0.49216,-0.70303 0.77344,-0.98438 0.46872,-0.0937 0.8906,-0.21084 1.26562,-0.35156 0.37498,-0.14053 0.79685,-0.21084 1.26563,-0.21094 0.46872,10e-5 0.86716,0.11729 1.19531,0.35157 0.3281,0.23446 0.67966,0.4454 1.05469,0.63281 -3e-5,0.28134 0.0468,0.56259 0.14062,0.84375 0.0937,0.28134 0.1406,0.56259 0.14063,0.84375 z m 9.42187,9.98437 c -0.0938,0.56258 -0.11723,1.07821 -0.0703,1.54688 0.0468,0.46883 -0.1641,0.8907 -0.63281,1.26562 -0.46879,0.18758 -0.9141,0.32821 -1.33594,0.42188 -0.42191,0.0938 -0.86722,0.23445 -1.33594,0.42187 l -2.10937,-0.42187 c -0.0938,-0.37492 -0.23441,-0.74992 -0.42188,-1.125 -0.18753,-0.37492 -0.28128,-0.74992 -0.28125,-1.125 -3e-5,-0.56242 0.16403,-1.07804 0.49219,-1.54688 0.32809,-0.46866 0.63278,-0.93741 0.91406,-1.40625 0.28122,-0.0937 0.5859,-0.18741 0.91406,-0.28125 0.32809,-0.0937 0.63278,-0.14054 0.91407,-0.14062 0.28121,8e-5 0.53902,0.047 0.77343,0.14062 0.23434,0.0938 0.49215,0.18759 0.77344,0.28125 0.18746,0.28134 0.3984,0.60946 0.63281,0.98438 0.23434,0.37508 0.49215,0.70321 0.77344,0.98437 z m -19.96875,-20.53125 c -0.18752,0.56261 -0.44533,1.10167 -0.77344,1.61719 -0.32814,0.51573 -0.4922,1.10166 -0.49218,1.75781 -0.75002,0.46885 -1.45315,0.70323 -2.10938,0.70313 -0.37501,10e-5 -0.75001,-0.0468 -1.125,-0.14063 -0.37501,-0.0937 -0.75001,-0.1874 -1.125,-0.28125 -0.18751,-0.46865 -0.42189,-0.9374 -0.70312,-1.40625 -0.28127,-0.46865 -0.46877,-0.98427 -0.5625,-1.54687 0.18748,-0.46865 0.4453,-0.84365 0.77343,-1.125 0.32812,-0.28115 0.67968,-0.65615 1.05469,-1.125 l 2.10938,0 c 0.56248,10e-5 1.0781,0.21104 1.54687,0.63281 0.46873,0.42198 0.93748,0.72667 1.40625,0.91406 z m 28.96875,31.92188 c -0.18755,0.84382 -0.35161,1.50007 -0.49219,1.96875 -0.14067,0.46882 -0.49223,1.03132 -1.05468,1.6875 l -1.125,0 c -0.18755,6e-5 -0.32817,0.0235 -0.42188,0.0703 -0.0938,0.0469 -0.23442,0.0704 -0.42187,0.0703 -0.56255,7e-5 -0.96098,-0.0937 -1.19532,-0.28125 -0.23441,-0.18743 -0.42191,-0.4218 -0.5625,-0.70312 -0.14066,-0.28118 -0.28129,-0.58587 -0.42187,-0.91406 -0.14067,-0.32806 -0.39848,-0.58587 -0.77344,-0.77344 0.18746,-0.56243 0.44527,-1.10149 0.77344,-1.61719 0.32808,-0.51555 0.67964,-1.00774 1.05469,-1.47656 0.2812,-0.0937 0.56245,-0.18743 0.84375,-0.28125 0.2812,-0.0937 0.56245,-0.14055 0.84375,-0.14063 0.37495,8e-5 0.74995,0.0704 1.125,0.21094 0.37495,0.1407 0.74995,0.25789 1.125,0.35156 -5e-5,0.75007 0.23432,1.35945 0.70312,1.82813 z m 9.14063,12.79687 c -6e-5,0.56256 -0.42194,1.1485 -1.26563,1.75782 -0.8438,0.60943 -1.50005,0.91411 -1.96875,0.91406 -0.56255,5e-5 -1.10161,-0.16401 -1.61719,-0.49219 -0.51567,-0.32807 -1.00786,-0.58588 -1.47656,-0.77344 -5e-5,-1.49994 0.51557,-2.99994 1.54688,-4.5 1.12494,6e-5 1.87494,-0.18744 2.25,-0.5625 0.46869,0.46881 1.00775,1.00788 1.61718,1.61719 0.60932,0.60943 0.91401,1.28912 0.91407,2.03906 z m 9.14062,12.375 c -0.18756,0.4688 -0.49225,0.79692 -0.91406,0.98438 -0.42194,0.18754 -0.72663,0.51567 -0.91406,0.98437 l -1.26563,0 c -0.46881,5e-5 -0.84381,-0.0703 -1.125,-0.21093 -0.28131,-0.14059 -0.60944,-0.30465 -0.98437,-0.49219 -0.18756,-0.28121 -0.35163,-0.53902 -0.49219,-0.77344 -0.14069,-0.23433 -0.3985,-0.44527 -0.77344,-0.63281 l 0,-0.84375 c 0.37494,-0.6562 0.84369,-1.28902 1.40625,-1.89844 0.56244,-0.60933 1.21869,-0.91401 1.96875,-0.91406 0.37494,5e-5 0.65619,0.0938 0.84375,0.28125 0.18744,0.18755 0.51556,0.18755 0.98438,0 0.74993,1.12505 1.17181,2.29692 1.26562,3.51562 z m 8.15625,9.28125 c 0.18743,0.37504 0.28118,0.70316 0.28125,0.98438 -7e-5,0.46878 -0.28132,1.12503 -0.84375,1.96875 -0.56257,0.84378 -1.12507,1.21878 -1.6875,1.125 l -0.84375,-0.14063 c -0.93757,-0.46871 -1.61726,-0.91403 -2.03906,-1.33593 -0.42195,-0.42185 -0.63288,-1.10153 -0.63281,-2.03907 0.46868,-0.74996 0.84368,-1.35933 1.125,-1.82812 0.28118,-0.46871 0.89055,-0.79684 1.82812,-0.98438 0.46868,0.18754 1.10149,0.42192 1.89844,0.70313 0.7968,0.28129 1.10149,0.79691 0.91406,1.54687 z m 9.14063,10.82813 c -0.28134,0.75002 -0.42196,1.50002 -0.42188,2.25 -0.46883,0.18752 -0.89071,0.51565 -1.26562,0.98437 -0.37509,0.46877 -0.89071,0.70315 -1.54688,0.70313 -0.46883,2e-5 -0.84383,-0.0937 -1.125,-0.28125 -0.28133,-0.18748 -0.65633,-0.37498 -1.125,-0.5625 -0.18758,-0.46873 -0.39851,-0.86717 -0.63281,-1.19531 -0.23445,-0.32811 -0.53914,-0.72654 -0.91406,-1.19532 0.37492,-0.28122 0.72648,-0.58591 1.05468,-0.91406 0.32805,-0.3281 0.72649,-0.53904 1.19532,-0.63281 0.74992,-0.46873 1.45304,-0.7031 2.10937,-0.70313 0.65617,3e-5 1.14836,0.16409 1.47656,0.49219 0.32805,0.32815 0.72648,0.67971 1.19532,1.05469 z m 18.98437,21.65625 c -1e-4,0.46875 -0.11729,0.89063 -0.35156,1.26562 -0.23448,0.37501 -0.39854,0.79688 -0.49219,1.26563 -0.3751,0.1875 -0.7501,0.39844 -1.125,0.63281 -0.3751,0.23438 -0.79697,0.35156 -1.26562,0.35156 -1.96885,0 -2.95323,-1.17187 -2.95313,-3.51562 -1e-4,-1.21875 0.53897,-1.89843 1.61719,-2.03906 1.07802,-0.14062 2.03896,-0.30469 2.88281,-0.49219 0.28115,0.46875 0.63271,0.84375 1.05469,1.125 0.42177,0.28125 0.63271,0.75 0.63281,1.40625 z M 703.79047,719.479 c -10e-5,0.46877 -0.047,0.89064 -0.14063,1.26563 -0.0938,0.37501 -0.18759,0.79688 -0.28125,1.26562 -0.56259,10e-6 -0.93759,0.1172 -1.125,0.35157 -0.18759,0.23438 -0.51571,0.35157 -0.98437,0.35156 -0.37509,10e-6 -0.84384,-0.0937 -1.40625,-0.28125 -0.56259,-0.18749 -1.03134,-0.37499 -1.40625,-0.5625 -0.28134,-0.65624 -0.42197,-1.40624 -0.42188,-2.25 -9e-5,-0.93749 0.35148,-1.61717 1.05469,-2.03906 0.70304,-0.42186 1.4296,-0.6328 2.17969,-0.63282 0.37491,2e-5 0.84366,0.0938 1.40625,0.28125 l 1.125,1.125 z m -72.98438,-70.875 c -0.56252,0.46884 -1.12502,0.93759 -1.6875,1.40625 -0.56252,0.46884 -1.21876,0.70321 -1.96875,0.70313 -0.46876,8e-5 -0.8672,-0.14054 -1.19531,-0.42188 -0.32814,-0.28116 -0.72658,-0.46866 -1.19531,-0.5625 -2e-5,-0.46866 -0.0469,-0.8671 -0.14063,-1.19531 -0.0938,-0.32804 -0.18751,-0.72648 -0.28125,-1.19531 l 0.98438,-2.10938 c 0.46873,9e-5 0.93748,-0.0468 1.40625,-0.14062 0.46873,-0.0937 0.93748,-0.14054 1.40625,-0.14063 l 0.5625,0 c 0.28123,0.28134 0.58592,0.53915 0.91406,0.77344 0.32811,0.23446 0.63279,0.49227 0.91406,0.77344 -2e-5,0.18758 -0.0235,0.42196 -0.0703,0.70312 -0.0469,0.28134 -0.0703,0.51571 -0.0703,0.70313 0.0937,0.18758 0.16404,0.30477 0.21093,0.35156 0.0469,0.047 0.11717,0.16415 0.21094,0.35156 z m 0.28125,17.15625 c -0.37502,0.18757 -0.6797,0.37507 -0.91406,0.5625 -0.23439,0.18757 -0.39846,0.51569 -0.49219,0.98438 l -1.40625,0 -2.53125,0 c -0.18751,-0.18744 -0.35157,-0.51556 -0.49219,-0.98438 -0.14063,-0.46868 -0.3047,-0.70305 -0.49218,-0.70312 -0.0938,7e-5 -0.0469,-0.37493 0.14062,-1.125 0.0937,-0.37493 0.23436,-0.74993 0.42188,-1.125 -0.0938,-0.28118 -0.0469,-0.60931 0.14062,-0.98438 0.18749,-0.28118 0.39842,-0.53899 0.63281,-0.77343 0.23436,-0.23431 0.67968,-0.3515 1.33594,-0.35157 0.37499,7e-5 0.70311,0.0235 0.98438,0.0703 0.28123,0.0469 0.60935,0.0704 0.98437,0.0703 0.28123,0.28132 0.46873,0.60944 0.5625,0.98437 0.0937,0.37507 0.32811,0.60945 0.70313,0.70313 0.28123,0.84382 0.42185,1.73444 0.42187,2.67187 z m -0.28125,12.23438 c -0.0938,0.75005 -0.21096,1.52349 -0.35156,2.32031 -0.14064,0.79693 -0.44533,1.57036 -0.91406,2.32031 -0.37502,5e-5 -0.75002,0.0235 -1.125,0.0703 -0.37502,0.0469 -0.75002,0.0704 -1.125,0.0703 -0.93752,5e-5 -1.73439,-0.2812 -2.39063,-0.84375 -1e-5,-0.37495 -0.0469,-0.74995 -0.14062,-1.125 -0.0938,-0.37495 -0.14064,-0.79682 -0.14063,-1.26563 -1e-5,-0.74994 0.35155,-1.40619 1.05469,-1.96875 0.70311,-0.56244 1.42967,-0.84369 2.17969,-0.84375 0.74998,6e-5 1.28904,0.16412 1.61718,0.49219 0.32811,0.32818 0.77342,0.58599 1.33594,0.77344 z m 0.42188,18.14062 c -2e-5,1.03129 -0.18752,1.75785 -0.5625,2.17969 -0.37502,0.42191 -0.93752,1.00785 -1.6875,1.75781 -0.28127,4e-5 -0.53908,-0.0234 -0.77344,-0.0703 -0.23439,-0.0468 -0.4922,-0.11715 -0.77344,-0.21094 -0.0938,4e-5 -0.32814,0.0938 -0.70312,0.28125 -0.28127,-0.28121 -0.60939,-0.63278 -0.98438,-1.05468 -0.37501,-0.42185 -0.60939,-0.86716 -0.70312,-1.33594 -2e-5,-0.18747 -0.0235,-0.37497 -0.0703,-0.5625 -0.0469,-0.18747 -0.0703,-0.42184 -0.0703,-0.70313 -10e-6,-0.37496 0.0703,-0.70308 0.21094,-0.98437 0.14061,-0.28121 0.21092,-0.60934 0.21094,-0.98438 0.56248,-0.0937 1.10154,-0.18746 1.61718,-0.28125 0.51561,-0.0937 1.0078,-0.14058 1.47657,-0.14062 0.46873,4e-5 0.98435,0.0938 1.54687,0.28125 0.18748,0.28129 0.37498,0.58597 0.5625,0.91406 0.18748,0.32816 0.42186,0.63285 0.70313,0.91406 z m -0.14063,17.57813 0,1.125 c -0.65627,0.84377 -1.26564,1.33595 -1.82812,1.47656 -0.56252,0.14064 -1.35939,0.21095 -2.39063,0.21094 -0.28126,10e-6 -0.53908,-0.0469 -0.77344,-0.14063 -0.23439,-0.0937 -0.44532,-0.18748 -0.63281,-0.28125 l 0,-1.40625 c -0.18751,-0.37498 -0.28126,-0.60935 -0.28125,-0.70312 0.46874,-1.03123 0.84374,-1.82811 1.125,-2.39063 0.28124,-0.56248 1.07811,-0.84372 2.39063,-0.84375 0.74998,3e-5 1.33592,0.30471 1.75781,0.91407 0.42185,0.60939 0.63279,1.28908 0.63281,2.03906 z m 0.28125,17.15625 c -0.28127,0.46875 -0.49221,0.9375 -0.63281,1.40625 -0.14065,0.46875 -0.30471,0.9375 -0.49219,1.40625 -0.37502,0.0937 -0.70314,0.16406 -0.98437,0.21094 -0.28127,0.0469 -0.6094,0.0703 -0.98438,0.0703 -0.37501,0 -0.72658,-0.0234 -1.05469,-0.0703 -0.32814,-0.0469 -0.6797,-0.0703 -1.05468,-0.0703 -0.18752,-0.46875 -0.42189,-0.98437 -0.70313,-1.54687 -0.28126,-0.5625 -0.42189,-1.125 -0.42187,-1.6875 -2e-5,-0.1875 0.0234,-0.30469 0.0703,-0.35156 0.0469,-0.0469 0.0703,-0.16406 0.0703,-0.35157 0.28124,-0.46874 0.77342,-0.91406 1.47656,-1.33593 0.70311,-0.42187 1.28905,-0.63281 1.75782,-0.63282 0.65623,10e-6 1.31248,0.3047 1.96875,0.91407 0.65623,0.60937 0.98435,1.28906 0.98437,2.03906 z"
         style="font-size:144px;fill:#ffffff;stroke:#ffffff;stroke-width:4;stroke-linecap:round;stroke-linejoin:round;stroke-miterlimit:4;stroke-opacity:1;stroke-dasharray:none"
         id="path3009"
         inkscape:connector-curvature="0" />
      <path
         d="m 809.96234,629.479 c -8e-5,0.75011 -0.37508,1.45323 -1.125,2.10938 -0.75008,0.65635 -1.50008,0.98447 -2.25,0.98437 l -0.84375,0 c -0.37508,-0.46865 -0.7032,-0.91396 -0.98437,-1.33593 -0.28133,-0.42178 -0.56258,-0.86709 -0.84375,-1.33594 0.18742,-0.5624 0.30461,-0.91396 0.35156,-1.05469 0.0468,-0.14052 -0.0235,-0.49208 -0.21094,-1.05469 1.40617,-0.65614 2.6718,-1.03114 3.79688,-1.125 0.74992,0.75011 1.35929,1.21886 1.82812,1.40625 0.18742,0.75011 0.28117,1.21886 0.28125,1.40625 z m -12.23437,0.14063 0,0.84375 c -0.65632,0.28135 -1.03132,0.7501 -1.125,1.40625 -0.37507,0.0938 -0.72663,0.1876 -1.05469,0.28125 -0.32819,0.0938 -0.72663,0.14072 -1.19531,0.14062 -0.28132,10e-5 -0.56257,-0.0468 -0.84375,-0.14062 -0.28132,-0.0937 -0.60944,-0.14053 -0.98438,-0.14063 -6e-5,-0.46865 -0.0704,-0.86708 -0.21094,-1.19531 -0.14069,-0.32802 -0.211,-0.67958 -0.21093,-1.05469 -7e-5,-0.65614 0.30462,-1.24208 0.91406,-1.75781 0.60931,-0.51552 1.14837,-0.91396 1.61719,-1.19531 0.46868,0.0938 0.7968,0.23448 0.98437,0.42187 0.18743,0.18761 0.51556,0.18761 0.98438,0 0.18743,0.37511 0.4218,0.75011 0.70312,1.125 0.28118,0.37511 0.42181,0.79698 0.42188,1.26563 z m -11.67188,0.14062 -1.96875,2.8125 c -0.56255,-0.0937 -1.0313,-0.14052 -1.40625,-0.14062 -0.37505,10e-5 -0.70318,-0.0233 -0.98437,-0.0703 -0.28131,-0.0468 -0.56256,-0.1874 -0.84375,-0.42188 -0.28131,-0.23427 -0.65631,-0.67959 -1.125,-1.33594 l 0,-1.125 c -6e-5,-0.37489 0.0468,-0.65614 0.14062,-0.84375 0.0937,-0.18739 0.23432,-0.42177 0.42188,-0.70312 0.37494,-0.3749 0.77338,-0.65615 1.19531,-0.84375 0.42182,-0.1874 0.86713,-0.3749 1.33594,-0.5625 0.46869,0.28135 0.84369,0.5626 1.125,0.84375 0.28119,0.28135 0.65619,0.46885 1.125,0.5625 z m -13.78125,-1.26562 c -4e-5,1.03135 -0.25786,1.92198 -0.77344,2.67187 -0.51566,0.7501 -1.33598,1.1251 -2.46093,1.125 l -1.26563,0 c -0.65629,-0.9374 -0.98441,-1.82802 -0.98437,-2.67187 l 0,-1.125 c 0.56246,-0.46865 0.91402,-0.86708 1.05468,-1.19531 0.14059,-0.32802 0.63278,-0.49209 1.47657,-0.49219 0.6562,10e-5 1.19527,0.16417 1.61718,0.49219 0.42184,0.32823 0.86715,0.72666 1.33594,1.19531 z m -12.51562,0.98437 c -4e-5,0.93761 -0.14066,1.6876 -0.42188,2.25 -0.28128,0.5626 -0.93753,0.84385 -1.96875,0.84375 -0.46878,10e-5 -0.89065,-0.11708 -1.26562,-0.35156 -0.37503,-0.23427 -0.79691,-0.49209 -1.26563,-0.77344 -0.0938,-0.1874 -0.18753,-0.39833 -0.28125,-0.63281 -0.0938,-0.23427 -0.14065,-0.49208 -0.14062,-0.77344 -3e-5,-0.84364 0.35153,-1.49989 1.05468,-1.96875 0.7031,-0.46864 1.42966,-0.70302 2.17969,-0.70312 0.18747,10e-5 0.39841,0.0235 0.63281,0.0703 0.23435,0.047 0.49216,0.0704 0.77344,0.0703 0.0937,0.37511 0.23434,0.70323 0.42188,0.98438 0.18746,0.28135 0.28121,0.60948 0.28125,0.98437 z m 36.98437,48.65625 c -7e-5,0.28131 -0.0938,0.60943 -0.28125,0.98438 -0.75007,0.75005 -1.336,1.19536 -1.75781,1.33594 -0.42194,0.14067 -1.1485,0.25786 -2.17969,0.35156 -0.46881,-0.37495 -0.75006,-0.77339 -0.84375,-1.19531 -0.0938,-0.42183 -0.37506,-0.82026 -0.84375,-1.19532 l 1.26563,-2.53125 0.84375,0 c 0.18743,-0.0937 0.42181,-0.21088 0.70312,-0.35156 0.28118,-0.14057 0.56243,-0.21088 0.84375,-0.21094 0.18743,6e-5 0.56243,0.0938 1.125,0.28125 0.18743,0.46881 0.42181,0.89068 0.70313,1.26563 0.28118,0.37505 0.4218,0.79693 0.42187,1.26562 z m -48.51562,-47.95312 c -0.18752,0.46885 -0.37502,0.86729 -0.5625,1.19531 -0.18752,0.32823 -0.28127,0.77354 -0.28125,1.33594 l -0.84375,0 c -0.18752,0.1876 -0.30471,0.39854 -0.35157,0.63281 -0.0469,0.23447 -0.16408,0.44541 -0.35156,0.63281 -0.75002,-0.1874 -1.6172,-0.49209 -2.60156,-0.91406 -0.98439,-0.42177 -1.47658,-1.14834 -1.47656,-2.17969 -2e-5,-0.84364 0.28123,-1.52333 0.84375,-2.03906 0.56248,-0.51552 1.21873,-0.77333 1.96875,-0.77344 0.37498,1.1e-4 0.84373,0.0939 1.40625,0.28125 0.18748,0.46886 0.5156,0.79698 0.98437,0.98438 0.46873,0.1876 0.89061,0.46885 1.26563,0.84375 z m 36.28125,48.09375 c -6e-5,0.56255 -0.16412,1.05474 -0.49219,1.47656 -0.32818,0.42193 -0.72662,0.77349 -1.19531,1.05469 l -0.5625,-0.28125 c -0.18756,5e-5 -0.30475,0.0235 -0.35157,0.0703 -0.0469,0.0469 -0.16411,0.0704 -0.35156,0.0703 -0.75005,6e-5 -1.33599,-0.28119 -1.75781,-0.84375 -0.42193,-0.56244 -0.63287,-1.21869 -0.63281,-1.96875 -6e-5,-0.93744 0.37494,-1.68744 1.125,-2.25 0.46869,6e-5 1.17182,-0.0937 2.10937,-0.28125 0.56245,0.28131 1.05463,0.65631 1.47656,1.125 0.42182,0.46881 0.63276,1.07818 0.63282,1.82813 z m -38.67188,-37.26563 c -2e-5,0.46884 -0.0469,0.89072 -0.14062,1.26563 -0.0938,0.37509 -0.18752,0.75009 -0.28125,1.125 l -1.26563,0 c -0.28127,9e-5 -0.65626,0.23446 -1.125,0.70312 -1.50001,-0.65616 -2.53126,-1.73428 -3.09375,-3.23437 0.46874,-0.37491 0.96093,-0.74991 1.47656,-1.125 0.51561,-0.37491 0.96093,-0.79678 1.33594,-1.26563 0.65624,0.0938 1.33592,0.32822 2.03906,0.70313 0.70311,0.37509 1.05467,0.98447 1.05469,1.82812 z m 1.6875,11.67188 c -0.46877,0.65633 -0.84377,1.4532 -1.125,2.39062 -0.46877,-0.0937 -0.91408,-0.0937 -1.33594,0 -0.42189,0.0938 -0.8672,0.14071 -1.33593,0.14063 -0.65627,8e-5 -1.17189,-0.14055 -1.54688,-0.42188 -0.18751,-0.46867 -0.42189,-0.89054 -0.70312,-1.26562 -0.28127,-0.37492 -0.42189,-0.7968 -0.42188,-1.26563 -1e-5,-0.18742 0.0937,-0.56242 0.28125,-1.125 0.37499,-0.37491 0.79686,-0.65616 1.26563,-0.84375 0.46873,-0.18741 0.89061,-0.46866 1.26562,-0.84375 0.65623,0.0938 1.17186,0.2579 1.54688,0.49219 0.37498,0.23446 0.79685,0.49227 1.26562,0.77344 0.18748,0.37508 0.32811,0.72664 0.42188,1.05469 0.0937,0.3282 0.23435,0.63289 0.42187,0.91406 z m 23.0625,24.89062 c -0.28129,0.84381 -0.63285,1.64068 -1.05469,2.39063 -0.42191,0.75005 -1.19535,1.12505 -2.32031,1.125 -0.37504,-0.18745 -0.77348,-0.32807 -1.19531,-0.42188 -0.42191,-0.0937 -0.77348,-0.28119 -1.05469,-0.5625 -0.28129,-0.56244 -0.42191,-1.17182 -0.42187,-1.82812 -4e-5,-0.2812 0.0468,-0.51557 0.14062,-0.70313 0.0937,-0.18744 0.18746,-0.42182 0.28125,-0.70312 l 1.82813,-1.40625 1.40625,-0.14063 c 0.37496,0.37506 0.77339,0.72662 1.19531,1.05469 0.42183,0.32818 0.82027,0.72662 1.19531,1.19531 z m -22.5,-12.375 c -0.18752,0.75007 -0.46877,1.40632 -0.84375,1.96875 -0.37502,0.56257 -0.51564,1.26569 -0.42187,2.10938 -0.46877,6e-5 -0.89065,-0.0234 -1.26563,-0.0703 -0.37502,-0.0468 -0.75002,-0.0702 -1.125,-0.0703 -0.0938,7e-5 -0.23439,0.0235 -0.42187,0.0703 -0.18752,0.0469 -0.28127,0.11725 -0.28125,0.21093 -0.46877,-0.37493 -0.79689,-0.63275 -0.98438,-0.77343 -0.18751,-0.14057 -0.56251,-0.30463 -1.125,-0.49219 -1e-5,-0.37494 0.0234,-0.67962 0.0703,-0.91406 0.0469,-0.23431 0.11718,-0.539 0.21094,-0.91407 -10e-6,-0.0937 -0.0938,-0.32806 -0.28125,-0.70312 0.37499,-0.46868 0.8203,-0.914 1.33594,-1.33594 0.51561,-0.42181 1.14842,-0.63274 1.89844,-0.63281 0.65623,7e-5 1.21873,0.32819 1.6875,0.98437 z m 9,13.78125 c -0.84378,1.31256 -1.96878,1.9688 -3.375,1.96875 -0.37502,5e-5 -0.93752,-0.0937 -1.6875,-0.28125 -0.0938,-0.37494 -0.2344,-0.70307 -0.42187,-0.98437 -0.18753,-0.2812 -0.28128,-0.6562 -0.28125,-1.125 l 0,-0.70313 c 0.18747,-0.46869 0.39841,-0.86713 0.63281,-1.19531 0.23435,-0.32807 0.35154,-0.72651 0.35156,-1.19531 0.74998,6e-5 1.4531,0.11724 2.10938,0.35156 0.65622,0.23443 1.35934,0.44537 2.10937,0.63281 0.18747,0.46881 0.28122,0.89068 0.28125,1.26563 -3e-5,0.37505 0.0937,0.79693 0.28125,1.26562 z m 51.46875,52.875 c -0.65633,0.65625 -1.31258,1.05469 -1.96875,1.19532 -0.65633,0.14062 -1.35945,0.35156 -2.10937,0.63281 -1.31258,-0.84375 -1.96883,-1.92188 -1.96875,-3.23438 -8e-5,-0.56249 0.32805,-1.19531 0.98437,-1.89843 0.65617,-0.70312 1.31242,-1.05469 1.96875,-1.05469 0.74992,0 1.21867,0.16407 1.40625,0.49219 0.18742,0.32813 0.51555,0.53906 0.98438,0.63281 0.37492,0.5625 0.53898,0.96094 0.49218,1.19531 -0.047,0.23438 -0.0704,0.63282 -0.0703,1.19531 -8e-5,0.375 0.0937,0.65625 0.28125,0.84375 z m -61.17187,-53.85937 c -0.28127,0.56255 -0.58596,1.14849 -0.91407,1.75781 -0.32814,0.60943 -0.77345,1.10162 -1.33593,1.47656 -0.46877,5e-5 -0.93752,0.0235 -1.40625,0.0703 -0.46877,0.0469 -0.93752,0.0704 -1.40625,0.0703 -2e-5,-0.6562 -0.18752,-1.07807 -0.5625,-1.26563 -0.37502,-0.18744 -0.56252,-0.70307 -0.5625,-1.54687 -2e-5,-0.4687 0.14061,-0.91401 0.42187,-1.33594 0.28124,-0.42182 0.60936,-0.82026 0.98438,-1.19531 l 0.5625,0 c 0.18748,5e-5 0.35154,-0.0234 0.49218,-0.0703 0.14061,-0.0468 0.30467,-0.0703 0.49219,-0.0703 l 0.84375,0 z m 49.35937,53.29687 c -7e-5,0.375 -0.0938,0.70313 -0.28125,0.98438 -0.18757,0.28125 -0.37507,0.60937 -0.5625,0.98437 -0.93757,0.46875 -2.06256,0.70313 -3.375,0.70313 -0.37506,-0.375 -0.67975,-0.75 -0.91406,-1.125 -0.23444,-0.375 -0.49225,-0.75 -0.77344,-1.125 -6e-5,-0.46875 0.0468,-0.91406 0.14063,-1.33594 0.0937,-0.42187 0.14056,-0.86718 0.14062,-1.33594 0.56244,10e-6 0.89056,-0.14062 0.98438,-0.42187 0.0937,-0.28125 0.18743,-0.65625 0.28125,-1.125 0.93743,0.375 1.61712,0.63282 2.03906,0.77344 0.42181,0.14062 0.91399,0.63281 1.47656,1.47656 0.18743,0.28125 0.37493,0.51563 0.5625,0.70312 0.18743,0.18751 0.28118,0.46875 0.28125,0.84375 z m -50.20312,-41.34375 c -2e-5,0.75005 -0.0938,1.42973 -0.28125,2.03907 -0.18752,0.60941 -0.28127,1.24222 -0.28125,1.89843 -0.46877,0.18754 -0.93752,0.37504 -1.40625,0.5625 -0.46877,0.18754 -0.93752,0.28129 -1.40625,0.28125 l -1.40625,0 c -0.18752,-0.74996 -0.39845,-1.24215 -0.63282,-1.47656 -0.23438,-0.23433 -0.35157,-0.86715 -0.35156,-1.89844 -1e-5,-0.4687 0.0469,-0.79683 0.14063,-0.98437 l 3.09375,-1.82813 c 0.46873,0.37505 0.86717,0.6563 1.19531,0.84375 0.32811,0.18755 0.77342,0.37505 1.33594,0.5625 z m 38.25,40.5 c -0.28131,0.5625 -0.44537,1.07813 -0.49219,1.54688 -0.0469,0.46875 -0.25787,0.9375 -0.63281,1.40625 -0.75006,0.28125 -1.40631,0.42187 -1.96875,0.42187 -0.75006,0 -1.38287,-0.28125 -1.89844,-0.84375 -0.51568,-0.5625 -0.77349,-1.21875 -0.77344,-1.96875 -5e-5,-0.28124 0.0937,-0.60937 0.28125,-0.98437 0.18745,-0.1875 0.42182,-0.39844 0.70313,-0.63281 0.28119,-0.23438 0.51557,-0.49219 0.70312,-0.77344 l 0.42188,-0.42188 c 1.40619,10e-6 2.17963,0.14063 2.32031,0.42188 0.14057,0.28125 0.58588,0.89063 1.33594,1.82812 z m -37.6875,-26.29687 c -0.18752,0.65628 -0.37502,1.07815 -0.5625,1.26562 -0.18752,0.18753 -0.2344,0.6094 -0.14063,1.26563 -0.46877,0.18752 -0.93752,0.37502 -1.40625,0.5625 -0.46877,0.18752 -0.93752,0.28127 -1.40625,0.28125 -0.28126,2e-5 -0.56251,-0.0234 -0.84375,-0.0703 -0.28126,-0.0468 -0.56251,-0.0703 -0.84375,-0.0703 -0.18751,-0.46872 -0.42189,-0.8906 -0.70312,-1.26562 -0.28127,-0.37497 -0.42189,-0.84372 -0.42188,-1.40625 l 0,-0.84375 c 0.65624,-1.31247 1.49999,-1.96872 2.53125,-1.96875 0.46874,3e-5 0.91405,0.0469 1.33594,0.14062 0.42186,0.0938 0.86717,0.14066 1.33594,0.14063 0.18748,0.37503 0.35154,0.72659 0.49218,1.05469 0.14061,0.32815 0.35155,0.63284 0.63282,0.91406 z m 24.75,27 c -5e-5,0.75 -0.23442,1.45312 -0.70313,2.10937 -0.46879,0.65625 -1.12504,0.98438 -1.96875,0.98438 -0.75004,0 -1.42973,-0.25782 -2.03906,-0.77344 -0.60942,-0.51562 -0.9141,-1.19531 -0.91406,-2.03906 -4e-5,-0.75 0.18746,-1.28906 0.5625,-1.61719 0.37496,-0.32812 0.79683,-0.72656 1.26562,-1.19531 0.74996,0.0937 1.42965,0.23438 2.03906,0.42187 0.60934,0.18751 1.1484,0.56251 1.61719,1.125 0.0937,0.18751 0.14058,0.51563 0.14063,0.98438 z m -25.03125,-14.90625 c -0.0938,0.46876 -0.21096,0.91408 -0.35157,1.33594 -0.14064,0.42189 -0.39845,0.77345 -0.77343,1.05468 -0.93752,0.37502 -1.68752,0.56252 -2.25,0.5625 -0.93752,2e-5 -1.57033,-0.30467 -1.89844,-0.91406 -0.32814,-0.60936 -0.53908,-1.28905 -0.63281,-2.03906 0.46873,-0.93748 1.26561,-1.96873 2.39062,-3.09375 0.46874,0.46877 0.89061,0.6797 1.26563,0.63281 0.37498,-0.0469 0.79685,0.16408 1.26562,0.63281 -2e-5,0.28127 0.0937,0.6094 0.28125,0.98438 0.28123,0.0938 0.51561,0.37502 0.70313,0.84375 z m 12.65625,16.45312 c -0.75003,0.1875 -1.2891,0.42188 -1.61719,0.70313 -0.32816,0.28125 -0.86722,0.42187 -1.61719,0.42187 -0.65628,0 -1.1719,-0.1875 -1.54687,-0.5625 -0.18753,-0.375 -0.39847,-0.70312 -0.63282,-0.98437 -0.2344,-0.28125 -0.35158,-0.65625 -0.35156,-1.125 -2e-5,-0.375 0.0703,-0.70312 0.21094,-0.98438 0.1406,-0.28124 0.25778,-0.56249 0.35156,-0.84375 0.46872,-0.28124 0.91404,-0.58593 1.33594,-0.91406 0.42185,-0.32812 0.96091,-0.49218 1.61719,-0.49219 0.56247,10e-6 0.98434,0.0469 1.26562,0.14063 0.0937,0.65625 0.28122,1.05469 0.5625,1.19531 0.28122,0.14063 0.42184,0.44532 0.42188,0.91406 -4e-5,0.28126 -0.0704,0.53907 -0.21094,0.77344 -0.14066,0.23438 -0.21097,0.44531 -0.21094,0.63281 -3e-5,0.1875 0.0468,0.375 0.14063,0.5625 0.0937,0.1875 0.18746,0.375 0.28125,0.5625 z m -13.78125,-3.23437 c -0.0938,1.6875 -0.84377,3 -2.25,3.9375 -0.56252,-0.375 -1.21877,-0.46875 -1.96875,-0.28125 -0.28127,-0.28125 -0.53908,-0.60938 -0.77344,-0.98438 -0.23439,-0.375 -0.53908,-0.65625 -0.91406,-0.84375 l 0,-0.98437 c -2e-5,-0.375 0.0469,-0.70312 0.14062,-0.98438 0.0937,-0.28124 0.14061,-0.56249 0.14063,-0.84375 0.46873,-0.28124 0.96092,-0.51562 1.47656,-0.70312 0.51561,-0.1875 1.0078,-0.46875 1.47656,-0.84375 0.84373,0.375 1.33592,0.77344 1.47656,1.19531 0.14061,0.42188 0.53905,0.86719 1.19532,1.33594 z"
         style="font-size:144px;fill:#ffffff;stroke:#ffffff;stroke-width:4;stroke-linecap:round;stroke-linejoin:round;stroke-miterlimit:4;stroke-opacity:1;stroke-dasharray:none"
         id="path3011"
         inkscape:connector-curvature="0" />
      <path
         d="m 910.79047,630.0415 c -10e-5,0.28136 -0.0938,0.70323 -0.28125,1.26563 l -1.54688,1.40625 -0.84375,0 c -0.37509,10e-5 -0.72665,-0.0233 -1.05469,-0.0703 -0.32821,-0.0468 -0.72665,-0.0702 -1.19531,-0.0703 -0.28134,-0.46865 -0.53915,-0.9374 -0.77344,-1.40625 -0.23446,-0.46864 -0.35164,-0.98427 -0.35156,-1.54687 0.93741,-1.4999 1.96866,-2.2499 3.09375,-2.25 0.28116,1e-4 0.56241,0.0235 0.84375,0.0703 0.28116,0.047 0.51554,0.0704 0.70313,0.0703 0.37491,0.37511 0.70303,0.77355 0.98437,1.19532 0.28116,0.42197 0.42178,0.86729 0.42188,1.33593 z m -13.64063,0 c -8e-5,0.56261 -0.1407,1.05479 -0.42187,1.47657 -0.28133,0.42197 -0.56258,0.86728 -0.84375,1.33593 -0.46883,10e-5 -0.86727,0.0235 -1.19532,0.0703 -0.3282,0.047 -0.67976,0.0704 -1.05468,0.0703 -0.37508,10e-5 -0.84383,-0.0937 -1.40625,-0.28125 l -1.6875,-1.82813 c 0.37492,-0.37489 0.53899,-0.60927 0.49218,-0.70312 -0.0469,-0.0937 -0.0704,-0.3749 -0.0703,-0.84375 -7e-5,-0.28115 0.0468,-0.51552 0.14063,-0.70313 l 1.40625,-1.40625 c 0.56242,1.1e-4 1.10148,1.1e-4 1.61718,0 0.51555,1.1e-4 1.05461,0.047 1.61719,0.14063 0.18742,0.3751 0.39836,0.72667 0.63281,1.05469 0.2343,0.32822 0.49211,0.63291 0.77344,0.91406 z m -13.5,-0.14062 c -0.0938,1.03135 -0.46881,1.80479 -1.125,2.32031 -0.65631,0.51573 -1.50006,0.77354 -2.53125,0.77344 -0.18756,10e-5 -0.65631,-0.0937 -1.40625,-0.28125 -0.0938,-0.0937 -0.3985,-0.44521 -0.91406,-1.05469 -0.51568,-0.60927 -0.67975,-1.00771 -0.49219,-1.19531 0.0937,-0.0937 0.14057,-0.28115 0.14063,-0.5625 -6e-5,-0.65615 0.30462,-1.28896 0.91406,-1.89844 0.60931,-0.60927 1.24213,-0.91396 1.89844,-0.91406 0.46868,10e-5 0.84368,0.0938 1.125,0.28125 0.28118,0.1876 0.65618,0.32823 1.125,0.42187 0.28118,0.37511 0.49212,0.75011 0.63281,1.125 0.14056,0.37511 0.3515,0.70323 0.63281,0.98438 z m -14.48437,1.125 c -0.37505,0.3751 -0.70318,0.60947 -0.98438,0.70312 l 0,0.70313 c -0.37505,0.1876 -0.77348,0.32822 -1.19531,0.42187 -0.42192,0.0938 -0.86724,0.28135 -1.33594,0.5625 -0.4688,-0.28115 -0.93754,-0.58583 -1.40625,-0.91406 -0.46879,-0.32802 -0.98442,-0.63271 -1.54687,-0.91406 -5e-5,-0.46865 -0.0235,-0.9374 -0.0703,-1.40625 -0.0469,-0.46865 -0.0703,-0.9374 -0.0703,-1.40625 0.56246,-0.28115 1.10152,-0.60927 1.61719,-0.98438 0.51558,-0.37489 1.05464,-0.74989 1.61719,-1.125 l 2.25,0.98438 c 0.18745,0.65635 0.42182,1.21885 0.70312,1.6875 0.2812,0.46885 0.42183,1.03135 0.42188,1.6875 z m -13.78125,-0.70313 c -4e-5,0.56261 -0.14067,0.89073 -0.42188,0.98438 -0.18753,0.46885 -0.37503,0.77354 -0.5625,0.91406 -0.18753,0.14073 -0.37503,0.44541 -0.5625,0.91406 l -1.40625,0 c -1.59378,10e-5 -2.55472,-0.28115 -2.88281,-0.84375 -0.32816,-0.5624 -0.58597,-1.49989 -0.77344,-2.8125 0.0937,-0.46864 0.25778,-0.79677 0.49219,-0.98437 0.23434,-0.1874 0.39841,-0.51552 0.49219,-0.98438 0.46871,-0.18739 0.86715,-0.32802 1.19531,-0.42187 0.32809,-0.0937 0.72653,-0.14052 1.19531,-0.14063 0.46872,1.1e-4 0.86715,0.0704 1.19531,0.21094 0.32809,0.14073 0.67966,0.25792 1.05469,0.35156 -3e-5,0.65636 0.16403,1.14854 0.49219,1.47657 0.32809,0.32822 0.49215,0.77354 0.49219,1.33593 z m 14.20312,15.89063 c -0.4688,0.75008 -0.89067,1.42977 -1.26562,2.03906 -0.37505,0.60946 -1.0313,1.10165 -1.96875,1.47656 -0.4688,-0.18741 -0.77349,-0.25773 -0.91407,-0.21093 -0.14067,0.047 -0.44536,0.0704 -0.91406,0.0703 l -0.5625,-0.28125 c -0.37504,-0.46867 -0.65629,-0.89054 -0.84375,-1.26563 -0.18754,-0.37491 -0.46879,-0.79679 -0.84375,-1.26562 0.56246,-0.56242 0.84371,-1.21866 0.84375,-1.96875 0.93746,-0.65616 1.87495,-0.98429 2.8125,-0.98438 0.2812,9e-5 0.53902,0.0235 0.77344,0.0703 0.23433,0.047 0.49214,0.11727 0.77344,0.21093 0.2812,0.28134 0.44526,0.53915 0.49218,0.77344 0.0468,0.23446 0.11714,0.4454 0.21094,0.63281 0.0937,0.18759 0.23433,0.32822 0.42188,0.42188 0.18745,0.0938 0.51557,0.18758 0.98437,0.28125 z m -28.54687,-14.90625 c -0.75003,0.7501 -1.40627,1.19541 -1.96875,1.33594 -0.56252,0.14072 -1.3594,0.21103 -2.39063,0.21093 -0.93752,10e-5 -1.54689,-0.44521 -1.82812,-1.33593 -0.28127,-0.89053 -0.42189,-1.71084 -0.42188,-2.46094 0.56248,-0.46865 1.10155,-0.9374 1.61719,-1.40625 0.51561,-0.46865 1.14842,-0.65615 1.89844,-0.5625 l 0.70312,-0.42188 c 0.37498,0.56261 0.70311,0.98448 0.98438,1.26563 0.28123,0.28135 0.5156,0.5626 0.70312,0.84375 0.18748,0.28135 0.3281,0.60948 0.42188,0.98437 0.0937,0.37511 0.18747,0.89073 0.28125,1.54688 z m 28.54687,32.34375 c -0.18755,0.18757 -0.37505,0.51569 -0.5625,0.98437 -0.18755,0.46882 -0.32817,0.79695 -0.42187,0.98438 -0.2813,0.18757 -0.58599,0.37506 -0.91407,0.5625 -0.32817,0.18756 -0.63286,0.42194 -0.91406,0.70312 -0.4688,-0.28118 -0.8438,-0.42181 -1.125,-0.42187 -0.2813,6e-5 -0.6563,-0.0468 -1.125,-0.14063 -0.37504,-0.46868 -0.63286,-0.74993 -0.77344,-0.84375 -0.14067,-0.0937 -0.49223,-0.18743 -1.05468,-0.28125 0.18745,-0.93743 0.42183,-1.99211 0.70312,-3.16406 0.28121,-1.1718 1.07808,-1.75774 2.39063,-1.75781 1.12495,7e-5 1.89838,0.37507 2.32031,1.125 0.42182,0.75007 0.91401,1.50007 1.47656,2.25 z m -43.3125,-33.32813 c -1e-5,0.65635 -0.28126,1.35948 -0.84375,2.10938 -0.37501,0.1876 -0.72657,0.32822 -1.05469,0.42187 -0.32813,0.0938 -0.72656,0.14073 -1.19531,0.14063 -0.84375,10e-5 -1.45313,-0.25771 -1.82812,-0.77344 -0.37501,-0.51552 -0.79688,-1.10146 -1.26563,-1.75781 0.1875,-0.9374 0.28125,-1.64052 0.28125,-2.10938 0.46875,-0.28114 0.98437,-0.53895 1.54688,-0.77343 0.56249,-0.23427 1.12499,-0.35146 1.6875,-0.35157 0.28124,1.1e-4 0.58593,0.047 0.91406,0.14063 0.32812,0.0938 0.6328,0.14073 0.91406,0.14062 0.18749,0.46886 0.37499,0.93761 0.5625,1.40625 0.18749,0.46886 0.28124,0.93761 0.28125,1.40625 z m 43.03125,49.92188 c -0.37505,0.75005 -0.72661,1.45317 -1.05469,2.10937 -0.32817,0.6563 -1.00786,0.98443 -2.03906,0.98438 -0.4688,5e-5 -0.8438,-0.0703 -1.125,-0.21094 -0.28129,-0.14057 -0.60942,-0.21089 -0.98437,-0.21094 -0.37505,-0.37495 -0.60942,-0.74995 -0.70313,-1.125 -0.0938,-0.37495 -0.37504,-0.6562 -0.84375,-0.84375 -4e-5,-0.74994 0.0937,-1.31244 0.28125,-1.6875 0.18746,-0.37494 0.51558,-0.84369 0.98438,-1.40625 l 2.53125,-0.84375 c 0.4687,0.46881 0.77339,0.75006 0.91406,0.84375 0.14058,0.0938 0.58589,0.23443 1.33594,0.42188 -5e-5,0.6563 0.0234,1.0313 0.0703,1.125 0.0468,0.0938 0.25776,0.37505 0.63281,0.84375 z m -0.14062,16.59375 c -5e-5,0.65628 -0.11724,0.98441 -0.35157,0.98437 -0.23442,4e-5 -0.25786,0.32816 -0.0703,0.98438 -0.4688,0.28128 -0.91411,0.56253 -1.33594,0.84375 -0.42192,0.28128 -0.91411,0.42191 -1.47656,0.42187 -0.2813,4e-5 -0.56255,-0.0468 -0.84375,-0.14062 -0.28129,-0.0937 -0.60942,-0.18747 -0.98437,-0.28125 -0.0938,-0.18747 -0.37505,-0.58591 -0.84375,-1.19531 -0.4688,-0.60934 -0.70317,-1.00778 -0.70313,-1.19532 -4e-5,-0.74996 0.39839,-1.45308 1.19531,-2.10937 0.79683,-0.65621 1.57027,-0.98434 2.32032,-0.98438 0.37495,4e-5 0.86714,0.30473 1.47656,0.91407 0.60932,0.60941 1.14839,1.05472 1.61719,1.33593 z m -0.5625,17.71875 c -0.18755,0.46877 -0.42193,0.84377 -0.70313,1.125 -0.2813,0.28126 -0.51567,0.65626 -0.70312,1.125 l -3.375,-0.28125 c -0.2813,-0.65623 -0.63286,-1.10155 -1.05469,-1.33594 -0.42192,-0.23436 -0.67973,-0.72654 -0.77344,-1.47656 0.46871,-0.74998 0.89058,-1.42967 1.26563,-2.03906 0.37495,-0.60936 1.07808,-0.91404 2.10937,-0.91407 1.12495,3e-5 2.06245,0.46877 2.8125,1.40625 z m 0.5625,16.17187 c -5e-5,0.1875 -0.0938,0.5625 -0.28125,1.125 -0.2813,0.28125 -0.67974,0.63282 -1.19532,1.05469 -0.51567,0.42188 -1.00786,0.63281 -1.47656,0.63281 -0.4688,0 -0.77348,-0.0937 -0.91406,-0.28125 -0.14067,-0.1875 -0.49223,-0.23437 -1.05469,-0.14062 -0.37504,-0.46875 -0.72661,-0.91406 -1.05469,-1.33594 -0.32817,-0.42187 -0.49223,-0.96093 -0.49218,-1.61719 -5e-5,-0.65624 0.23433,-1.14843 0.70312,-1.47656 0.46871,-0.32812 0.84371,-0.72656 1.125,-1.19531 l 1.125,0 c 0.4687,0 1.17183,0.0937 2.10938,0.28125 0.18745,0.46875 0.4687,0.91406 0.84375,1.33594 0.37495,0.42187 0.56245,0.96094 0.5625,1.61718 z"
         style="font-size:144px;fill:#ffffff;stroke:#ffffff;stroke-width:4;stroke-linecap:round;stroke-linejoin:round;stroke-miterlimit:4;stroke-opacity:1;stroke-dasharray:none"
         id="path3013"
         inkscape:connector-curvature="0" />
    </g>
  </g>
</svg>
